<?xml version="1.0" encoding="utf-8"?>
<!-- Generator: Adobe Illustrator 27.5.0, SVG Export Plug-In . SVG Version: 6.00 Build 0)  -->
<svg version="1.1" xmlns="http://www.w3.org/2000/svg" xmlns:xlink="http://www.w3.org/1999/xlink" x="0px" y="0px"
	 viewBox="0 0 750 500" style="enable-background:new 0 0 750 500;" xml:space="preserve">
<g id="BACKGROUND">
	<g>
		<rect style="fill:#184181;" width="750" height="500"/>
	</g>
</g>
<g id="OBJECTS">
	<g>
		<defs>
			<rect id="SVGID_1_" width="750" height="500"/>
		</defs>
		<clipPath id="SVGID_00000153690720186831007700000015807658487892264328_">
			<use xlink:href="#SVGID_1_"  style="overflow:visible;"/>
		</clipPath>
		<g style="clip-path:url(#SVGID_00000153690720186831007700000015807658487892264328_);">
			<g>
				<rect x="-41.897" y="-32.814" style="fill:#16151B;" width="219.616" height="314.782"/>
			</g>
			<g>
				<rect x="136.174" y="366.865" style="fill:#16151B;" width="158.511" height="169.718"/>
			</g>
			<g>
				<rect x="456.399" y="-49.18" style="fill:#36627B;" width="297.876" height="172.062"/>
			</g>
			<g>
				<path style="fill:#BB2124;" d="M277.252,195.799c-17.133,22.654-23.257,51.884-24.356,80.265
					c-1.778,45.909,9.312,93.734,38.617,129.117c29.305,35.383,78.752,55.665,122.929,43.052
					c31.367-8.956,57.195-33.457,70.858-63.078c13.663-29.621,15.768-63.831,9.19-95.781c-6.577-31.942-21.909-62.395-45.449-84.965
					C405.995,163.135,318.884,140.751,277.252,195.799z"/>
			</g>
			<g>
				<path style="fill:#BB2124;" d="M-71.697,153.708c0,0,242.575,45.657,242.575,354.549s-284.674,124.035-341.788-87.719
					C-209.332,278.085-195.458,133.621-71.697,153.708z"/>
			</g>
			<g>
				<path style="fill:#184181;" d="M109.39,36.888C94.737,45.805,90.157,64.89,87.355,81.934
					c-9.364,56.957-12.427,114.861-17.162,172.331c-0.488,5.918-0.584,13.503,4.55,17.552c5.317,4.194,13.576,2.595,19.171,6.703
					c15.884,11.661-9.823,38.393-14.402,49.816c-7.348,18.328-1.533,36.238,9.242,51.531c9.563,13.574,28.372,16.365,43.822,15.32
					c18.009-1.218,37.124-5.587,53.389,2.239c22.722,10.934,30.399,41.218,52.46,53.431c13.12,7.263,29.286,6.789,43.794,2.991
					c29.719-7.781,55.573-29.201,68.744-56.956c13.171-27.754,13.415-61.328,0.649-89.271
					c-18.065-39.541-59.936-67.227-68.146-109.917c-2.992-15.559-1.135-31.995-6.161-47.02
					c-7.864-23.511-30.56-38.418-52.356-50.231c-17.074-9.253-34.588-18.288-47.688-33.02
					c-16.354-18.391-39.034-47.026-67.109-30.993C109.893,36.586,109.64,36.736,109.39,36.888z"/>
			</g>
			<g>
				<g>
					<path style="fill:#F57114;" d="M111.524,448.34c15.373,42.066-5.863,122.309-88.099,81.529
						C-37.739,499.538-79.879,296.533,9.348,282.571c46.603-7.293,76.796,53.145,91.564,96.776
						c14.768,43.631,24.403,41.101,27.954,52.704C130.622,437.786,121.646,444.53,111.524,448.34"/>
				</g>
				<g>
					<g>
						<path style="fill:#F9E4C7;" d="M95.959,389.989c-19.843-16.94-48.366-23.104-73.434-15.87
							c-25.068,7.234-45.922,27.646-53.689,52.553c20.523,16.235,48.685,22.752,73.756,15.257
							C67.663,434.433,87.715,414.824,95.959,389.989z"/>
					</g>
					<g>
						
							<ellipse transform="matrix(0.4232 -0.906 0.906 0.4232 -349.8246 265.5176)" style="fill:#36647E;" cx="33.637" cy="407.527" rx="29.195" ry="29.195"/>
					</g>
					<g>
						
							<ellipse transform="matrix(0.8862 -0.4633 0.4633 0.8862 -184.9771 61.9587)" style="fill:#16151B;" cx="33.637" cy="407.527" rx="11.798" ry="11.798"/>
					</g>
				</g>
			</g>
			<g>
				<path style="fill:#36647E;" d="M190.052,189.568l-47.202,75.384c0,0,101.955,64.114,155.375,23.353l-68.617-120.033
					L190.052,189.568z"/>
			</g>
			<g>
				<polygon style="fill:#16151B;" points="254.265,175.585 177.719,26.123 125.631,78.012 187.992,225.35 				"/>
			</g>
			<g>
				<path style="fill:#F57114;" d="M333.529,119.853c-0.207-1.76-0.432-3.51-0.683-5.247c0-0.002,0-0.003-0.001-0.005v0
					c-5.701-39.465-23.038-72.662-61.716-84.911C207.568,9.56,162.203,86.21,162.203,86.21l142.472,224.013
					c0,0,7.75-21.544,15.429-52.795c0-0.001,0-0.001,0-0.002c3.969-15.351,10.664-13.079,13.317-18.558
					c2.653-5.479-4.837-10.386-4.467-12.289c0.37-1.903,5.766-1.483,7.721-7.018c1.951-5.523-6.666-10.762-6.278-13.536
					c0.001-0.008,0.003-0.016,0.004-0.025c0.462-2.774,23.984-3.324,26.132-11.917C358.594,185.84,339.33,159.809,333.529,119.853z"
					/>
			</g>
			<g>
				<path style="fill:#F3DCBD;" d="M247.707,144.1c-12.647,0-25.229-3.205-34.063-9.434c-1.806-1.273-2.237-3.769-0.964-5.574
					c1.273-1.806,3.77-2.237,5.574-0.964c13.552,9.557,38.566,10.697,54.623,2.491c17.351-8.869,21.186-27.366,21.348-41.322
					c0.025-2.193,1.811-3.954,3.998-3.954c0.016,0,0.031,0,0.047,0.001c2.209,0.025,3.979,1.837,3.953,4.046
					c-0.269,23.174-9.158,39.894-25.707,48.352C268.165,142.012,257.914,144.1,247.707,144.1z"/>
			</g>
			<g>
				<g>
					<path style="fill:#BB2124;" d="M210.398,258.026c0,0,27.092,12.238,46.537,0.094c19.445-12.145,17.763-38.558,17.763-38.558
						l-29.839,19.728L210.398,258.026z"/>
				</g>
				<g>
					<path style="fill:#F3DCBD;" d="M288.23,215.08c-29.455,14.591-57.482,32.063-83.551,52.086
						c-1.069-10.12,2.798-19.074,10.544-25.674c7.747-6.599,20.454-7.341,29.636-2.203c2.478-9.216,6.866-20.978,17.332-26.18
						C273.008,207.732,280.883,210.296,288.23,215.08z"/>
				</g>
			</g>
			<g>
				<g>
					<path style="fill:#F9E4C7;" d="M187.992,149.485c-16.41-6.995-36.28-5.185-51.156,4.66
						c-14.876,9.845-24.308,27.426-24.284,45.265c16.709,6.396,36.415,4.89,51.24-5.126
						C178.618,184.268,187.691,167.374,187.992,149.485z"/>
				</g>
				<g>
					<circle style="fill:#F57114;" cx="150.917" cy="173.67" r="19.961"/>
				</g>
				<g>
					<circle style="fill:#16151B;" cx="150.917" cy="173.67" r="8.066"/>
				</g>
			</g>
			<g>
				<polygon style="fill:#BB2124;" points="800.768,216.593 640.186,216.593 713.828,-32.814 800.768,-32.814 				"/>
			</g>
			<g>
				<path style="fill:#36627B;" d="M774.565,374.934h17.972v-179.68H640.185V311.22C691.92,317.813,738.51,340.857,774.565,374.934z
					"/>
			</g>
			<g>
				<path style="fill:#F57114;" d="M631.926,538.03c21.693,6.073,44.86,8.426,66.781,3.236c21.922-5.189,42.467-18.574,53.199-38.38
					c10.732-19.807,10.127-46.112-4.067-63.606c-13.075-16.114-36.169-24.436-42.906-44.064c-6.49-18.908,5.45-38.782,17.301-54.882
					c11.851-16.099,24.887-34.718,20.679-54.261c-3.24-15.05-16.992-28.936-28.831-37.943c-12.62-9.6-18.17-25.181-18.138-40.735
					c0.036-17.267,5.687-33.962,8.741-50.957c3.054-16.995,3.134-35.81-6.689-50.01c-11.151-16.119-32.129-22.15-51.666-23.725
					c-43.791-3.53-88.744,10.256-123.026,37.731c-34.282,27.475-57.529,68.346-63.622,111.854
					c-4.333,30.941-0.257,62.595,7.9,92.754c12.669,46.844,28.469,94.272,56.807,134.214
					C550.489,496.041,588.17,525.779,631.926,538.03z"/>
			</g>
			<g>
				<g>
					<path style="fill:#16151B;" d="M489.748,161.834c-61.166-11.256-133.371-31.956-131.072-60.34
						c2.299-28.385,89.228-7.076,91.691-25.186c2.463-18.109-57.485-29.535-51.31-55.436c6.175-25.901,202.086,5.157,235.873,19.747
						c33.786,14.59,6.36,320.443,6.36,320.443l-41.339-2.206l-3.235,36.393c-2.053,23.096-23.536,39.415-46.337,35.198
						l-93.979-17.38L489.748,161.834z"/>
				</g>
				<g>
					<path style="fill:#F9E4C7;" d="M385.62,316.318c0,0,64.779-182.781,76.729-207.412s107.19-18.604,107.19-18.604
						s5.424,114.09-0.072,175.156c-5.496,61.066-35.28,136.715-83.803,166.982c-48.522,30.267-69.776,6.751-68.114-13.39
						c1.663-20.141,2.415-23.585-3.877-36.235c-6.291-12.649,0.113-16.261,8.605-20.963c0,0-8.28-6.651-8.388-14.29
						c-0.108-7.638,16.39-24.065,16.39-24.065L385.62,316.318z"/>
				</g>
			</g>
			<g>
				<g>
					<path style="fill:#184181;" d="M387.255,199.638l-12.437-65.141c0,0,63.573-37.123,124.296,22.376l-25.079,55.537
						L387.255,199.638z"/>
				</g>
				<g>
					<path style="fill:#F9E4C7;" d="M401.226,177.76c-1.085,0-2.084-0.712-2.4-1.806l-3.624-12.539
						c-0.384-1.327,0.381-2.713,1.707-3.096c1.33-0.384,2.712,0.381,3.096,1.708l3.624,12.538c0.384,1.327-0.381,2.713-1.707,3.096
						C401.688,177.729,401.455,177.76,401.226,177.76z"/>
				</g>
				<g>
					<path style="fill:#F9E4C7;" d="M418.534,173.488c-1.303,0-2.401-1.01-2.491-2.33l-0.9-13.18
						c-0.094-1.377,0.946-2.57,2.324-2.665c1.364-0.089,2.57,0.946,2.664,2.324l0.9,13.18c0.094,1.377-0.946,2.57-2.324,2.665
						C418.649,173.486,418.592,173.488,418.534,173.488z"/>
				</g>
				<g>
					<path style="fill:#F9E4C7;" d="M436.368,173.701c-0.154,0-0.312-0.015-0.469-0.045c-1.356-0.257-2.248-1.565-1.99-2.922
						l2.41-12.711c0.257-1.356,1.565-2.25,2.922-1.99c1.357,0.257,2.248,1.565,1.99,2.922l-2.41,12.711
						C438.594,172.866,437.545,173.701,436.368,173.701z"/>
				</g>
				<g>
					<path style="fill:#F9E4C7;" d="M454.245,178.852c-0.385,0-0.774-0.089-1.14-0.276c-1.228-0.631-1.713-2.138-1.082-3.366
						l5.358-10.434c0.63-1.229,2.139-1.712,3.365-1.082c1.228,0.631,1.713,2.138,1.082,3.366l-5.357,10.434
						C456.028,178.356,455.152,178.852,454.245,178.852z"/>
				</g>
				<g>
					<path style="fill:#F9E4C7;" d="M467.684,187.47c-0.445,0-0.896-0.119-1.304-0.368c-1.177-0.721-1.548-2.26-0.826-3.438
						l6.455-10.545c0.72-1.178,2.26-1.547,3.438-0.827c1.177,0.721,1.548,2.26,0.826,3.438l-6.455,10.545
						C469.347,187.045,468.524,187.47,467.684,187.47z"/>
				</g>
				<g>
					<path style="fill:#BB2124;" d="M480.336,157.555c-25.064-16.94-58.419-20.905-86.755-10.312c0,0,10.141-38.433,48.741-35.009
						C476.989,115.309,480.336,157.555,480.336,157.555z"/>
				</g>
				<g>
					<g>
						<path style="fill:#16151B;" d="M388.339,221.005c-0.611,0-1.224-0.223-1.706-0.673c-1.009-0.943-1.063-2.525-0.119-3.534
							l8.298-8.88c0.942-1.009,2.523-1.063,3.533-0.12c1.009,0.943,1.063,2.525,0.119,3.534l-8.298,8.88
							C389.674,220.739,389.008,221.005,388.339,221.005z"/>
					</g>
					<g>
						<path style="fill:#16151B;" d="M403.96,230.122c-0.439,0-0.882-0.115-1.284-0.357c-1.184-0.71-1.568-2.246-0.857-3.43
							l4.945-8.244c0.711-1.185,2.248-1.566,3.43-0.858c1.184,0.71,1.568,2.246,0.857,3.43l-4.945,8.244
							C405.637,229.689,404.809,230.122,403.96,230.122z"/>
					</g>
					<g>
						<path style="fill:#16151B;" d="M425.58,240.117c-0.14,0-0.282-0.012-0.425-0.036c-1.36-0.233-2.275-1.525-2.042-2.886
							l2.05-11.985c0.232-1.36,1.524-2.275,2.886-2.043c1.36,0.233,2.275,1.525,2.042,2.886l-2.05,11.985
							C427.833,239.256,426.775,240.117,425.58,240.117z"/>
					</g>
					<g>
						<path style="fill:#16151B;" d="M447.279,239.458c-1.141,0-2.171-0.785-2.436-1.943l-2.684-11.744
							c-0.308-1.346,0.534-2.686,1.881-2.994c1.346-0.31,2.686,0.534,2.994,1.88l2.684,11.744c0.308,1.346-0.534,2.686-1.881,2.994
							C447.65,239.437,447.464,239.458,447.279,239.458z"/>
					</g>
					<g>
						<path style="fill:#16151B;" d="M470.975,230.167c-0.804,0-1.594-0.388-2.076-1.105l-5.998-8.914
							c-0.771-1.146-0.467-2.699,0.679-3.47c1.143-0.771,2.699-0.468,3.47,0.679l5.998,8.914c0.771,1.146,0.467,2.699-0.679,3.47
							C471.94,230.028,471.455,230.167,470.975,230.167z"/>
					</g>
					<g>
						<path style="fill:#F57114;" d="M474.034,212.409c-7.764-15.227-23.183-26.298-40.093-28.786
							c-16.91-2.488-34.865,3.671-46.686,16.015c10.525,12.885,23.96,23.264,40.372,25.993
							C444.039,228.36,459.905,221.195,474.034,212.409z"/>
					</g>
				</g>
			</g>
			<g>
				<g>
					<path style="fill:#BB2124;" d="M529.02,154.958c-11.054,2.114-43.21,108.382-39.396,121.094
						c3.813,12.712,125.059,42.125,134.95,38.804s39.675-108.441,37.842-118.298C660.583,186.699,544.774,151.944,529.02,154.958z"
						/>
				</g>
				<g>
					<g>
						<path style="fill:#F9E4C7;" d="M625.639,251.296c-7.541-18.91-24.992-33.536-44.929-37.656
							c-19.937-4.12-41.756,2.391-56.175,16.762c8.266,18.67,25.34,33.409,45.374,37.35
							C589.944,271.692,610.917,265.444,625.639,251.296z"/>
					</g>
					<g>
						
							<ellipse transform="matrix(0.0028 -1 1 0.0028 333.8527 816.2925)" style="fill:#184181;" cx="576.235" cy="240.744" rx="22.781" ry="22.781"/>
					</g>
					<g>
						<path style="fill:#16151B;" d="M582.725,247.273c-3.606,3.584-9.434,3.567-13.019-0.039
							c-3.584-3.606-3.567-9.434,0.039-13.019c3.606-3.584,9.434-3.566,13.018,0.039
							C586.348,237.861,586.331,243.689,582.725,247.273z"/>
					</g>
				</g>
				<g>
					<path style="fill:#16151B;" d="M621.592,222.953c-0.786,0-1.581-0.231-2.276-0.714l-57.333-39.778l-21.819,18.907
						c-1.668,1.447-4.196,1.265-5.642-0.403c-1.447-1.669-1.267-4.196,0.403-5.643l24.166-20.941
						c1.379-1.196,3.397-1.306,4.899-0.264l59.886,41.549c1.815,1.259,2.266,3.752,1.006,5.567
						C624.105,222.352,622.859,222.953,621.592,222.953z"/>
				</g>
			</g>
			<g>
				<path style="fill:#F3DCBD;" d="M282.156,60.012c-31.335,7.205-59.803,26.227-78.45,52.42
					c-4.042-20.498,2.592-42.562,20.105-53.953C241.325,47.087,265.056,48.007,282.156,60.012z"/>
			</g>
			<g>
				<path style="fill:#BB2124;" d="M111.524,448.34c-10.354,3.897-21.92,5.39-24.396-1.744
					C83.788,436.973,106.732,430.821,111.524,448.34"/>
			</g>
			<g>
				<g>
					<path style="fill:#BB2124;" d="M61.503,319.648c0,0,6.186,25.258,33.281,27.433c30.795,2.472,41.391-21.253,41.391-21.253
						L61.503,319.648z"/>
				</g>
				<g>
					<path style="fill:#F9E4C7;" d="M149.785,330.066c-34.533-0.871-67.102-3.818-98.254-6.32
						c3.974-10.817,12.559-20.346,25.604-20.284c10.176,0.049,18.619,7.198,25.052,15.084c9.257-11.01,18.672-13.24,27.256-11.01
						C138.989,310.016,144.95,315.552,149.785,330.066z"/>
				</g>
			</g>
			<g>
				<path style="fill:#F9E4C7;" d="M187.992,546.743c87.048-57.92,134.617-186.795,134.617-186.795s-55.224-37.478-95.934,0
					l316.029,153.015L187.992,546.743z"/>
			</g>
		</g>
	</g>
</g>
</svg>
