<?xml version="1.0" encoding="UTF-8"?>
<svg viewBox="0 0 261.25 271.25" xmlns="http://www.w3.org/2000/svg">
 <g transform="matrix(1.25,0,0,-1.25,0,271.25)">
  <g transform="scale(.24)">
   <path d="m485.16 891.63 28.328-33.695 21.981-42.731 3.906-15.383 6.352-14.16 20.757-71.055 11.723-63.242v-5.371l6.348-41.266 3.664-11.476 8.058 19.047-1.464 10.5 1.464 14.16 6.348 11.723 19.297 10.254h10.5l11.476 16.847 31.262 23.442 30.77 5.125 20.515-1.465 21-5.125 41.274-19.289 11.48-9.035 22.223-37.602 10.012-41.266 21.004-20.511 11.476-30.032 2.688-30.523-3.907-20.508-16.851-31.254-18.074-15.383-29.551-23.199-19.535-8.055-20.758-7.57-31.016-1.465h-10.5l-18.074-9.035h-12.699l-3.907 3.906-15.628-3.906-18.075 1.465 1.465-64.703 5.129-15.629 20.516-7.57h8.058l2.442 3.91 20.758 7.812h49.089l21.735-4.152 31.015-24.418v-7.812l9.282-37.602-2.688-9.035 5.129-29.543 23.445-5.129 6.102-7.57v-9.032l-7.57-5.375 5.129-28.324-1.219-20.508-2.442-39.066-3.91-9.0351-3.906 2.4414-24.664-3.6641-14.168-6.3477h-16.606l-19.539-2.6836-27.105 2.6836-9.035 2.4414-5.129 7.5704-3.91 33.695-3.907 12.942-7.812 14.16 2.684 21.977-10.5 8.058v10.012l15.628 11.719 19.293 5.371-2.441 23.195v0.977l-15.629 4.152-6.351 2.441-8.059 14.407-14.164 3.664-12.945 12.941-16.606 2.684-15.629 7.812-2.441-6.347-7.571-9.278-1.464-7.812-5.129-9.035-11.723-34.672-28.332-77.403-5.125-18.558 7.57-4.883 6.594-16.848 34.676 29.789 15.633 3.907 20.511-5.372 15.629-11.476 14.41-24.66-2.929-25.883-3.664-7.8125v-7.5703l-12.942-3.9062-16.609-11.719-64.715-16.605-45.426-8.0586-41.273 8.0586-14.406 7.5703-6.106 9.0351 2.442 24.66 9.035 20.508 10.258 13.188v13.918l9.035 11.718 8.058 5.371 20.516 48.836 23.199 51.766v6.59l7.817 10.258 12.699 32.23 5.371 14.16-45.18 41.508-20.758 20.754h-2.687l-5.129-12.938-14.164-38.824-6.348-18.07v-5.125l-3.906-19.535-6.598-15.383-1.218-14.16-14.411-45.172-9.035-13.188-2.441-5.125-15.629-10.257-16.609-9.036-2.442-2.683 13.922-19.535v-16.602l-9.035-21.977-20.516-15.625h-9.035l-47.625-7.5703-20.512 2.4414-19.539 10.5-3.906 12.695 7.816 19.535 1.219 1.4648-6.594 7.57 1.465 10.496 5.129 6.106 1.465 1.465v2.687l-4.152 2.442-18.071 2.929-43.714 19.043-29.793 20.758-18.075 15.383-27.105 49.32-6.352 31.012-4.152 28.324 2.688 37.602 12.945 38.578 24.664 41.265 42.738 41.508v5.129l12.699 12.942-3.664 10.254-4.152 3.906-25.887-1.223-6.347 3.91-9.036 14.16 1.219 1.223v4.149l-6.594 2.441-63.25 1.223-55.437 1.218-31.016 11.723-7.8164 9.035 2.6875 19.289 9.0352 12.696 21.734 19.535 22.227 10.007 45.179 9.036 27.106 2.929 1.465 1.223-11.723 7.812-43.957 29.79-5.129 7.57v12.941l6.351 9.032 12.942 9.035 47.867 3.906 67.16-6.348 43.957-10.5 65.938-25.636 27.109-14.407-2.687 56.891 8.793 33.453 2.687 3.906 2.442 2.442 11.722-2.442-1.222 12.942-5.372 16.847-3.664 32.477 2.688 46.144 10.012 32.723 21.98 32.231 8.059 2.441 16.605-1.465 19.539-7.57zm132.85-578.44l-3.664 7.571 1.222 55.672-16.851-6.594-42.739-7.813 4.153-3.664 57.879-45.172zm183.65-105.97v3.906l-6.351 15.137-8.059-4.883-18.07-5.125h-21.739l-1.465-10.5 6.594 1.465 20.516-2.688 28.574 2.688" fill="#231f20"/>
   <path d="m486.38 877.47 28.574-40.043 18.07-42.731 15.387-47.855 15.387-65.684 12.941-78.867 5.129-17.09 2.688-2.441 1.222-55.184 10.5-31.011 11.477-25.879-19.535 5.125-11.481 1.222-47.863 15.625-34.68 15.383-31.015 20.754-13.188 10.258-22.957 31.008-9.035 28.324-9.035 20.512-8.059 36.136v9.035l-2.445 2.684 2.445 10.258 1.465 24.66 2.442 9.035 11.722 5.125 23.445-12.941 2.442-2.684h5.129l1.465 1.465v3.906l-17.094 15.383-13.922 37.602-4.152 42.73 1.465 31.008 6.351 23.199 16.852 29.543 11.476 8.059 19.535-4.153 16.852-11.476" fill="#edefef"/>
   <path d="m777.242,673.098 18.071-14.16 19.05-32.231 8.059-32.477-2.688-.976-3.906-3.906 12.942-11.719 11.722-9.035 9.035-14.16 10.016-32.231-.977-33.207-10.503-21-9.036-9.035-7.57-1.219-9.035-12.941-18.074-12.942-41.27-16.847-27.598-2.442h-15.14l-23.445-11.476h-6.594l-6.106,9.035-1.465,7.566 3.907,12.942 10.258,1.222 1.464-15.629 6.352-3.66 9.035,2.442 19.293,15.625 10.5,2.687 11.477-2.687h1.468l2.442,2.687-18.074,18.067v4.886l-5.372,4.149-2.441-1.465-2.441-2.684 2.441-11.476-37.367-2.442-25.887-9.035-18.07-10.5-9.035,6.348-5.129,8.058 1.465,11.477 .976,1.219 12.942-9.031h18.316l10.016,6.347 12.941,17.09v2.441l-2.441,2.688-7.571-5.129-8.058-10.496-9.035-5.129-11.481,1.219-6.594,6.351 1.465,9.032 10.258,9.281 15.387,2.441 4.152-1.222h.977l5.371,10.257 2.687,2.93v.977l-2.687,2.683-10.5-7.812 2.683,11.719v5.128l21.981-20.753 20.758-10.254 20.515,1.218 21.004,8.059 29.547,38.578 5.129,31.988-6.594,37.602-10.012,21.73-23.445,26.125-19.293,12.7-23.445,10.254-32.235-1.223-20.515-21.731-6.594-10.5-1.465-1.218-21.734,10.254-20.758-5.125-10.258-6.594v11.719l6.348,9.035 15.633,7.812 16.605-1.465h2.688v-3.906l1.218-.976h4.153l11.476,15.382 19.293,12.696 15.387,2.687 24.668-5.129 29.793-12.941 11.477-9.031 6.593-2.688v-.976l2.446-2.688 3.906,2.688-.977,6.347-26.133,20.754-36.144,15.383-24.664-1.219-33.457-23.195v-1.465l-2.688-2.687-7.57,1.464 1.223,6.348 28.57,24.418 21.98,5.371 38.586-5.371 45.426-18.07" fill="#a0abb0"/>
   <path d="m246.32 672.12 11.477-2.683 16.852-1.465 14.41-6.348 36.144-11.723 45.18-19.289 18.07-10.254h5.129l6.106-9.035v-3.906l-48.844-14.164-21.981-10.496h-2.683l-7.571 10.496-3.91 3.91-14.164-2.934-3.906-4.882-2.687-2.684-36.145 1.465-4.883 10.254-10.5 10.254h-16.851l-9.036-9.032 6.348-19.289-15.387-4.152-6.347-9.035v-12.695l6.347-7.817-9.035-15.379 3.664-10.258 2.688-2.441-46.403 1.223-69.847 1.218-19.535 7.813-6.3515 8.793 5.375 16.848 33.457 27.101 54.461 14.16 33.457-2.441 9.035 2.441v9.035l-66.183 46.637-2.442 6.348 3.91 9.035 13.188 9.035 34.676 2.688 23.203-2.688 41.515-3.664" fill="#d7dddf"/>
   <path d="m758.93 616.45 16.851-20.758 12.942-34.672-1.465-34.914-18.07-28.082-14.168-13.183-27.106-3.906-23.199 9.035 2.684 9.031 3.91 8.059v21.73l-5.375 17.824-6.594 9.035-12.699 2.442h-5.371l-7.571-10.012-2.445-10.496-10.5 38.578 1.465 41.508 4.887 7.812v6.352l11.718 14.16 16.852 3.906 21.738-4.882 41.516-28.567" fill="#f89a83"/>
   <path d="m754.527,610.59c4.641-6.102 9.528-12.207 14.411-18.313 3.664-10.254 7.328-20.507 11.234-30.765-.488-10.254-.734-20.754-1.223-30.766-5.371-8.301-10.5-16.601-15.629-25.148-4.152-3.66-8.304-7.571-12.211-11.477-7.812-.976-15.875-2.195-23.687-3.418-10.012-.73-14.899,3.664-17.828,10.012 1.222,4.394 2.441,8.547 3.418,12.941v19.289c-1.465,5.129-2.93,10.5-4.641,15.871-1.707,2.688-3.66,5.129-5.617,7.813-3.66.734-7.324,1.711-10.988,2.441-22.469,4.641-23.688-16.359-22.469,15.871 .488,12.211.734,24.664 1.223,36.872l4.394,6.593v5.86c3.418,4.152 6.594,8.3 10.012,12.453l14.656,3.66c6.348-1.707 12.699-3.172 18.805-4.637 11.965-8.304 24.176-16.847 36.14-25.152" fill="#f89a83"/>
   <path d="m751.844,606.441c4.394-5.371 8.789-10.988 12.941-16.605 3.418-9.277 6.84-18.801 10.258-28.078-.242-9.278-.734-18.801-.977-28.078-4.882-7.571-9.523-15.141-14.41-22.711-3.66-3.418-7.324-7.078-10.988-10.496-7.082-.977-14.41-2.2-21.492-3.176-8.789-.734-13.43,2.93-16.36,8.301 .489,3.664.977,7.324 1.954,11.234 .242,6.348 0,12.449 0,18.555-1.711,4.64-3.176,9.277-4.887,14.164-2.195,2.683-4.395,5.125-5.617,8.543-3.172.976-6.106,1.953-9.036,3.176-19.292,4.394-20.023-13.188-19.046,14.894 .488,10.5.976,21.242 1.218,31.742 1.465,2.196 2.688,4.153 3.907,6.106 .246,1.953.246,3.906.492,5.613 3.172,3.664 6.347,7.328 9.523,10.988 4.395.977 9.035,1.953 13.43,2.688 5.863-1.465 11.48-2.93 17.098-4.395 10.746-7.57 21.246-14.894 31.992-22.465" fill="#f89f88"/>
   <path d="m749.156,602.535c3.907-5.129 7.817-10.012 11.723-15.14 3.176-8.301 6.105-16.848 9.281-25.395-.246-8.301-.734-16.848-.976-25.148-4.399-6.836-8.551-13.918-12.946-20.754-3.418-3.176-6.593-6.348-10.011-9.524-6.352-.73-12.946-1.707-19.293-2.683-7.817-.735-12.211,2.195-15.141,6.589 0,2.93 0,6.106.488,9.524 .489,6.348.242,12.211 0,17.336-1.465,4.64-3.176,8.789-4.886,12.941-2.442,2.688-5.129,4.883-5.86,9.035-2.441,1.219-4.64,2.684-6.84,4.149-15.875,4.152-16.363-10.008-15.629,13.918 .489,8.793.977,17.824 1.465,26.859 .977,1.953 2.199,3.664 3.176,5.371 .242,1.957.731,3.664.977,5.617 2.929,3.176 5.859,6.106 8.793,9.278 4.148.734 8.3,1.465 12.453,1.953 5.129-1.465 10.258-2.93 15.386-4.637 9.282-6.347 18.559-12.941 27.84-19.289" fill="#f8a690"/>
   <path d="m746.469,598.383c3.422-4.395 6.84-8.789 10.504-13.43 2.683-7.324 5.371-14.894 8.3-22.465-.488-7.812-.73-15.379-.976-22.949-3.906-5.859-7.57-11.965-11.477-18.07-2.929-2.93-6.105-5.617-9.035-8.547-5.617-.977-11.48-1.707-17.097-2.684-6.594-.488-10.747,1.707-13.918,5.125-.489,2.446-1.223,4.887-.735,7.817 .488,6.347.246,11.965-.242,16.601-1.469,4.153-3.176,7.813-4.887,11.235-2.929,2.683-5.617,4.636-5.859,9.765-1.711,1.465-3.422,3.176-4.887,4.883-12.453,3.906-12.699-6.836-11.965,12.699 .489,7.325.977,14.891 1.219,22.219 .981,1.465 1.711,3.172 2.688,4.883l1.464,5.125c2.688,2.687 5.618,5.375 8.305,7.816 3.664.489 7.57.731 11.234,1.219 4.641-1.465 9.282-3.172 13.676-4.637 7.817-5.375 15.629-10.988 23.688-16.605" fill="#f9ad98"/>
   <path d="m743.539,594.477c3.176-3.907 6.352-7.813 9.524-11.719 2.199-6.84 4.64-13.43 7.082-20.024-.243-6.836-.489-13.429-.731-20.023-3.418-5.371-6.84-10.742-10.012-16.113l-8.062-7.325c-4.883-.976-10.012-1.71-15.141-2.441-5.371-.246-9.277.977-12.211,3.66-1.465,1.465-2.441,3.176-2.195,5.86 .488,6.351.242,11.234-.488,15.628-1.223,3.907-3.176,7.079-4.887,10.012-3.176,2.442-6.348,4.149-5.859,10.254-1.223,1.465-2.2,3.664-3.176,5.617-9.035,3.66-8.793-3.418-8.305,11.719 .488,5.617.977,11.477 1.465,17.336 .734,1.223 1.223,2.687 1.957,4.152 .73,1.707 1.465,3.418 2.195,5.125 2.442,1.953 4.887,4.153 7.328,6.106 3.418.246 6.836.246 10.5.488 3.907-1.465 7.817-3.176 11.723-4.641 6.594-4.636 12.945-9.031 19.293-13.671" fill="#fab5a0"/>
   <path d="m740.852,590.57 8.058-10.254c2.199-5.863 4.153-11.476 6.352-17.339-.246-5.86-.489-11.473-.735-17.336-2.929-4.637-5.859-9.032-8.789-13.672-2.199-2.199-4.398-4.395-6.593-6.594-4.399-.73-8.793-1.219-13.188-1.953-4.152-.242-8.059.488-10.992,1.953-1.953.734-3.418,1.953-3.66,4.152 .976,6.348.488,10.989-.246,14.649-1.465,3.664-3.176,6.105-5.129,8.547-3.418,2.441-7.082,3.906-6.106,10.742-.488,1.957-.73,4.152-.976,6.594-5.618,3.418-5.129-.243-4.883,10.746 .488,3.906.976,8.054 1.707,12.207 .246,1.218.734,2.441 1.223,3.66 .73,1.711 1.71,3.176 2.687,4.887 2.195,1.707 4.395,3.171 6.836,4.636 2.93,0 6.105-.242 9.281-.242 3.418-1.465 6.836-3.176 10.258-4.64 4.883-3.661 10.012-7.325 14.895-10.743" fill="#fabca9"/>
   <path d="m738.168,586.418c2.441-2.684 4.637-5.613 6.836-8.543 1.711-4.887 3.418-9.77 5.129-14.652 0-4.883-.242-9.766-.488-14.653-2.442-3.906-4.883-7.812-7.329-11.472-1.953-1.711-3.66-3.664-5.613-5.371-3.664-.735-7.328-1.223-10.992-1.711-2.93-.246-6.594-.246-9.77.242-2.441.246-4.636.734-4.882,2.445 .976,6.102.488,10.496-.489,13.914-1.222,3.176-3.175,5.129-5.129,6.84-3.906,2.441-7.57,3.66-6.105,11.477 0,1.953.488,4.636.977,7.324-2.2,3.418-1.465,2.93-1.219,9.523 .488,2.442.976,5.125 1.465,7.567 .242.976.488,1.953.73,2.929 .977,1.465 1.953,3.176 3.176,4.887 1.953.977 4.152,1.953 6.105,2.93 2.688-.246 5.618-.735 8.305-.977 2.684-1.711 5.617-3.176 8.547-4.887 3.664-2.441 7.082-5.125 10.746-7.812" fill="#fbc4b2"/>
   <path d="m735.48,582.512c1.954-2.442 3.665-4.637 5.618-7.082 1.218-3.907 2.687-7.813 4.152-11.719-.246-4.152-.246-8.059-.488-11.965-1.957-3.176-3.91-6.594-5.864-9.766-1.464-1.464-3.171-2.929-4.64-4.394-2.93-.246-5.86-.488-8.789-.977-3.91-.488-13.676-3.418-14.653-.976 4.395,25.879-16.363,13.426-11.968,30.519 1.222,4.641 4.882,12.211 5.129,16.848 .488.734.976,1.711 1.711,2.688v2.195c1.218,1.465 2.441,3.176 3.66,4.64 1.957.489 3.664.977 5.617,1.465 2.199-.488 4.64-1.222 7.082-1.711 4.398-3.172 9.039-6.589 13.433-9.765" fill="#fbcbbb"/>
   <path d="m651.72 613.77 2.441-52.743 14.41-40.043 2.684-27.101-4.148-9.035-19.051-10.254-9.035-16.848-10.5 2.684-10.504 10.258 7.816 20.754-2.441 28.324-7.817 14.406-7.816 4.883h-6.348l-7.816-8.793-2.684 31.742 5.371 33.695 7.571 15.629 15.629 11.477 6.351 2.683 18.07-6.589 7.817-5.129" fill="#f89a83"/>
   <path d="m251.44 582.76-10.504-5.129-9.035 1.465-6.347 16.601 6.347 7.571 10.504-4.883 9.035-15.625" fill="#ed114e"/>
   <path d="m412.63 575.19-7.816 2.441-59.102-32.231-10.5-2.441-2.441-2.93v-2.441l-10.504 18.066-0.977 16.848 42.496 18.07 34.676 9.035 6.352-2.441 7.816-21.976" fill="#8b8b8d"/>
   <path d="m317.14 581.54h-3.907v-23.441l10.504-21.485 14.164-12.941-3.664-3.906-12.945 2.441-11.723 8.055-11.476 18.801-1.465 19.535 5.129 12.941 7.812 6.594h5.129l2.442-6.594" fill="#edece1"/>
   <path d="m287.59,572.5v-21.973l10.5-19.289 11.476-11.476h2.688l2.441-2.688-6.593-14.16-12.942-6.351-24.18-1.465-6.593-2.442-2.442,1.223h-4.152l-2.441-3.906h-21.981l-7.812,10.5 3.664,9.031 9.035,2.441 1.465,1.223-7.817,6.594h-15.383l-7.816,7.812 3.906,10.012 5.129,3.906 9.035-1.465 3.911,5.371-2.446,5.129-9.035,1.465h-3.906l-5.129,7.567 .976,6.593 5.375,4.883h32.235l20.758,10.5 18.074-2.441v-6.594" fill="#edece1"/>
   <path d="m392.11 540.03-12.699-20.265-30.039-5.129-15.141-9.035-14.41 1.465 2.442 7.57 12.945-1.465h4.152l9.035 10.5 2.442 13.918-1.465 1.465 5.371 4.883 50.067 23.195 9.035 2.93 7.816-11.965-29.551-18.067" fill="#c4cacd"/>
   <path d="m486.38 499 42.496-18.066 20.758-6.348 6.347-29.789 9.282-11.477 6.347-4.152 14.168-2.442 9.036 1.465 10.5 11.477-3.907 14.164v5.125l18.071-1.219 9.039-6.351h3.906l-3.906-13.184 5.125-11.477 12.945-11.718h6.348l-33.457-27.106-19.536-7.812-38.832-5.125-23.199 3.906-6.351 5.125-2.684 2.688v7.812l-19.293 39.801-23.203 32.472-33.699 29.79-34.68 16.605-21.98 3.906h-2.442v14.164l3.664 5.371 23.199 13.918 5.129 1.465 12.946-17.824 47.863-35.164" fill="#7f8386"/>
   <path d="m703.24 532.7 2.688-20.758-2.688-9.031-4.883-4.887-10.5 7.571-11.722 20.511 2.683 21.973 2.446 2.445 11.964-2.445 10.012-15.379" fill="#ca567d"/>
   <path d="m340.34 530.26-5.129 4.887 4.152 1.464h2.442l-1.465-6.351" fill="#707579"/>
   <path d="m615.57,518.539 3.907-27.101-2.684-10.5-1.223-.977h-2.687l-14.164,31.984v18.313l2.687.98 7.571-.98 6.593-11.719" fill="#ca567d"/>
   <path d="m421.66 500.47 34.922-21.977 25.641-27.105 10.503-15.625-32.238 25.882-42.492 21.973-51.531 15.383-18.071 2.687-1.464 1.223 10.5 5.125 10.011 1.465 37.368-3.906 16.851-5.125" fill="#707579"/>
   <path d="m339.36 480.94 2.442-9.036-2.442-5.129-6.593-3.906v-1.219l1.464-1.222-26.132-18.067-16.606-9.035h-12.945l-5.129 4.883h-5.371l-7.571 11.719 1.465 6.351 31.993 24.661 20.757 10.5v6.589l2.442 0.977h10.504l11.722-18.066" fill="#a9c4d0"/>
   <path d="m424.35 471.9 55.437-33.695 12.945-11.477 6.594-1.464 12.942-23.196 3.664-27.101-2.442-36.141-6.593-24.66-5.129-14.16v28.566l-9.036 1.223-10.503 28.566-21.735 29.543-21.976 18.071-64.477 36.382-20.512 6.348-5.129 9.035-2.687 2.684 5.129 7.57-9.035 25.883 32.234-4.883 50.309-17.094" fill="#707579"/>
   <path d="m271.96 475.81-3.906 7.812 9.035 5.375h15.633l-20.762-13.187" fill="#ed114e"/>
   <path d="m592.37 457.74 1.219-16.847-5.371-5.129-13.922 2.441-9.035 11.719-1.465 5.375v15.383l20.758-3.911 7.816-9.031" fill="#8b8b8d"/>
   <path d="m355.969,394.5-6.594-20.508-9.035-11.965-36.145-21.734-3.664,3.664v7.813l-2.441,2.687h-4.152l-9.036-15.629-16.851-15.625 6.594,18.07v1.465l1.222,1.219-3.91,3.906-6.348-3.906-5.129-7.57-15.628-9.032 17.093,22.95 20.516,47.859 3.66,26.125 7.817,3.906h2.687l3.906-17.09-6.593-36.136-2.442-9.035 3.664-2.442 5.371,11.477 6.594,40.043 .977,6.59-.977,1.222 3.664-11.719v-42.488l1.465-1.219h.976l3.907,7.571v38.82l-.977,9.035-2.93,7.813-3.664,3.664 5.129,3.906h2.442l14.168-28.078h1.465l-1.465,21.73-5.129,11.477 11.722,9.277 15.629-27.347 2.442-30.766" fill="#e8bc1f"/>
   <path d="m273.42 428.2 2.445-5.371-3.91-32.23-16.605-38.824-11.723-18.067-10.258-10.5v-0.976l2.445-2.688 12.942 2.688 14.164 9.035-3.906-12.942v-5.129h7.812l25.891 27.102 1.219-6.59v-2.441l5.128-3.907 20.758 16.602 18.074 10.5 14.407 11.477 11.48 18.066 2.684 27.105-5.129 19.532 32.238-10.5 52.508-32.231 27.105-33.449 11.969-28.566 6.106-6.352v-24.414l1.464-4.152v-3.907l-7.57 9.036-1.465 5.371-33.703 28.324-33.457 11.476-31.992 4.149-37.609-2.684-33.704-12.941-38.585-27.106-31.016-36.136-16.852-54.207-2.441-25.879-14.164 15.625-15.629 25.636-10.504 31.012-3.66 36.383 2.684 33.449 3.664 7.813 6.351 25.64 13.188 21.973 2.441 10.5 36.145 38.824 10.5 4.883 15.628-10.012h2.442" fill="#a0abb0"/>
   <path d="m714.96 425.27-6.594-3.664-2.441 2.687v6.348l9.035 5.129h7.816l-7.816-10.5" fill="#ed114e"/>
   <path d="m655.62 402.07-1.465 1.465 5.371 11.477-1.464 1.218 17.097 9.036 0.977-23.196h-20.516" fill="#707579"/>
   <path d="m641.46 331.26 3.664-24.664 5.371-3.907h14.164l11.481-5.125-6.352-18.07 1.465-6.594-13.187 2.688-10.012 6.348h-6.594l-3.906 16.847-10.504 9.035-2.442 20.754 1.223 42.485 5.129 12.941 5.129 3.906 3.906-10.254 1.465-46.39" fill="#8b8b8d"/>
   <path d="m629.98 284.62-17.097-54.207-45.18-122.82-2.441-11.477h-20.758l-9.035 5.125-5.129 6.352 6.348 20.753 37.609 81.309 24.422 56.891 1.222 1.465 10.5-6.594h6.352l1.219 2.445v4.149l-59.344 55.183-32.238 32.473 1.222 14.164 99.395-77.402 2.933-7.813" fill="#8b8b8d"/>
   <path d="m154.49 362.03v-1.222l-11.722-2.442-12.946-10.5-15.629-25.636-12.699-10.5-14.41 6.593-3.664 3.907 2.6875 14.16 15.387 13.918 36.145 15.629 5.129 1.464 10.5-3.906 1.222-1.465" fill="#231f20"/>
   <path d="m110.53 327.36-9.035-9.035-6.3515 3.907-3.9062 5.128 4.8867 12.938 31.258 18.07 7.816 2.442-12.945-12.942-11.723-20.508" fill="#fbc707"/>
   <path d="m425.57 327.36 32.481-15.628 20.515-19.289 7.813-16.848 4.887-5.129-4.887-29.789-6.594-16.848 1.465-1.219v-3.906l-2.684 6.59-16.851 10.012-34.68 8.058-20.758-2.687-35.898-18.067-27.109-28.57-11.965-28.078-0.977-31.254 2.442-2.441-32.239 7.57-42.738 19.531-23.199 16.606-2.688 19.531 2.688 24.664 14.164 45.172 22.222 28.324 42.25 28.567 23.446 10.011 32.238 4.149 24.664-1.465 31.992-7.567" fill="#707579"/>
   <path d="m700.801,297.566-2.442-3.906v-5.129l.977-1.465h3.906l4.153,5.372 19.05,16.601 13.188,4.152 33.457-4.152 9.035-6.348-3.906-3.906-14.164,6.348-16.61-.977-7.812-9.031 3.906-4.152h3.906l7.571,6.593h6.593l6.594-5.128 7.574-2.688 14.407,3.91 6.105-1.222 5.375-7.813-2.445-6.594 .98-.976h2.684l7.816-36.383-6.351-5.371h-4.149v14.406l-3.91,6.594v18.066l1.465,1.223-2.441,2.441-6.594-.976v-26.125l2.441-6.594-.976-11.477-3.907-3.664h-5.129l-2.929,3.664v37.602l1.465,1.223v2.683l-2.442,2.688h-4.152l-4.887-8.059-1.465-45.172-16.847,1.465-1.223.977v19.535l2.441,6.594-1.218.976 6.593-10.012 1.219-1.464h2.442l2.933,2.441-2.933,10.5-9.036,7.812h-16.605l-3.906-3.906-2.688-21.976h-9.035l-9.039,9.035-3.906,15.625v12.941l-2.688,2.688h-4.883l-5.129-6.594 2.442-11.719v-2.441l-9.035,6.347-5.371,10.254 2.929,19.536 14.164,16.601 10.012,4.152h10.504l-18.074-15.625" fill="#edece1"/>
   <path d="m747.44 254.84h-2.929l-4.883-10.5v-6.106h-2.688l2.688 16.606 2.441 1.465 1.465-1.465h3.906" fill="#707579"/>
   <path d="m124.7 252.4-6.347-2.688-6.594-7.812-7.57-23.196v-14.164l-8.059-11.476-3.6641-3.907-7.8164 2.442-7.5703 10.5 3.6641 15.14 29.793 35.161 6.594 2.441h7.57v-2.441" fill="#231f20"/>
   <path d="m98.809 204.54-9.0352-10.5-5.1289 6.594 1.4649 14.164 16.61 20.508-3.9104-18.067v-12.699" fill="#fbc707"/>
   <path d="m473.191,218.699 5.375-5.129-1.222-6.347-1.223.976h-1.465l-2.441-2.441v-3.664l.976-1.465h2.93l-15.629-33.695-9.035-11.477-12.941-7.57c-10.993-6.59-18.563-10.496-37.61-17.09l-10.015-2.442-49.086,1.465-1.465.977h-3.664l2.687,3.906-2.687,15.625 5.129,29.789 11.722,20.512 19.293,18.07 34.68,14.16 3.906,1.465 31.016-1.465 30.769-14.16" fill="#a0abb0"/>
   <path d="m815.83 207.22v-1.465h-5.129l-2.441 23.437h0.976l6.594-21.972" fill="#707579"/>
   <path d="m738.41 225.29h1.223v-17.09h-1.223v17.09" fill="#fff"/>
   <path d="m839.03 198.19 5.375-6.594v-3.906l-15.632-10.254-21.977-2.442-1.469-1.465v-2.441l-6.105-1.465-1.465-1.223-6.594 11.719h-10.012l-6.593-6.59-2.442-19.535v-1.219l-2.929-2.445-3.664 11.477v11.722l-11.969 11.477h-3.66l-2.446 10.496v2.688l48.844 0.976 1.465 1.465 11.48-2.441h29.793" fill="#fbc707"/>
   <path d="m804.35 191.59h-38.828v3.906l42.738-1.465-3.91-2.441" fill="#e8bc1f"/>
   <path d="m736.94 182.56-3.906-10.5-7.57-2.442-3.91-7.816v-22.95l-1.219-1.464v-1.465h-3.91l-3.907 11.961 3.907 18.07-3.907 5.129-9.281 7.566 2.688 7.817 18.074 7.566h7.812l5.129-11.472" fill="#fbc707"/>
   <path d="m722.78 125.67v4.152h2.688l6.347 12.696-1.218 14.406v3.664l7.812 3.906 6.106 12.942 5.375-3.907 1.218 0.243v-95.958l-19.293 3.9063-3.906 9.0351-2.441 24.66-2.688 10.254" fill="#a9c4d0"/>
   <path d="m751.11 77.812v95.958l3.907 1.222 1.711-1.711v-96.445l-5.618 0.9766" fill="#a9c4d0"/>
   <path d="m756.727,76.8359v96.4451l.976-1.218 2.442-21.735 1.953-1.953v-71.2969l-4.395-.4883-.976.2461" fill="#b4cad7"/>
   <path d="m762.1 77.078v71.297l3.422-3.418 2.195 0.246v-67.637l-5.617-0.4883" fill="#becedc"/>
   <path d="m767.72 77.566v67.637l5.617 0.977v-68.125l-5.617-0.4883" fill="#c7d2e3"/>
   <path d="m773.33 78.055v68.125l1.223 0.242 4.394 5.375v-73.254l-5.617-0.4883" fill="#d4d7e9"/>
   <path d="m778.949,78.543v73.254l.735.976 1.464,16.848 2.442,2.442v1.464h.734v-94.4957l-5.375-.4883" fill="#e0daef"/>
   <path d="m784.32 79.031v94.496h1.953l3.664-7.324v-86.684l-5.617-0.4882" fill="#d0dae0"/>
   <path d="m789.94 79.52v86.684l0.243-0.246 2.441-2.93 2.934 0.489v-83.508l-5.618-0.4883" fill="#c2d0d6"/>
   <path d="m795.56 80.008v83.508l5.617 0.73v-83.75l-5.617-0.4883" fill="#b0c1c8"/>
   <path d="m801.18 80.496v83.75l5.371 0.981v-82.778l-4.883-1.9531h-0.488" fill="#a3b5bd"/>
   <path d="m806.55 82.449v82.778l5.617 0.73v-81.309l-1.465-0.4882-4.152-1.711" fill="#869aa4"/>
   <path d="m812.16 84.648v81.309l6.352 0.977 1.218 1.464v2.688l15.629 2.441 5.129-23.199-2.683-55.668-1.223-1.4649v-2.4414l-24.422-6.1055" fill="#869aa4"/>
   <path d="m136.42 137.39 6.352-10.5-3.911-18.071-12.699-5.125-6.594 3.907-5.371 10.253 6.594 25.883 12.945 25.883h1.465l1.219-32.23" fill="#231f20"/>
   <path d="m136.42 123.23-1.219-3.907-2.933-2.687 1.468-1.219v-4.152l-5.129-2.442h-2.445l-5.371 9.035 5.371 24.661 2.445 5.371 1.219-14.407 6.594-10.253" fill="#fbc707"/>
   <path d="m773.09 128.36-4.887-19.535v-1.218h-9.277l-7.817 3.66-2.441 2.929 1.223 14.164 10.254 7.571 10.503-3.664 2.442-3.907" fill="#231f20"/>
   <path d="m765.52 126.89-2.442-11.477-2.933-2.687-5.129 5.128 2.687 11.965h5.375l2.442-2.929" fill="#fbc707"/>
   <path d="m433.39 98.566-5.375-20.512-9.035-9.0352-50.063-11.961-20.516 1.4648-14.164 5.125-11.968 9.0352-2.442 6.3477 1.465 9.0351 2.445 2.6875 19.536-7.5703 30.769 0.9766 15.633 8.0586h10.012l2.687 12.941 9.035-6.5936h9.035v5.1286l-19.535 16.602 14.407 4.152 15.628-16.847 2.446-9.0356" fill="#8e8b78"/>
   <path d="m358.41 106.38 22.223 4.883 9.039 6.593 3.906-5.128-1.465-11.477-21.734-11.719-26.133 2.6875-15.387 9.0312-7.57 9.035 2.445 6.348 5.125 5.129 18.075-12.942 11.476-2.441" fill="#8e8b78"/>
   <path d="m371.6 116.63h3.91l-14.168-3.906-6.594 1.464-6.348 5.129 20.516-1.465 2.684-1.222" fill="#6a6b6e"/>
   <path d="m666.12 106.38 14.168-16.848 3.906-9.0352-2.929-31.008-5.129-7.5703-28.086-15.625-39.074-6.5938-15.387-4.8828-40.051-6.5937-43.957 9.0351-12.945 7.5703-3.907 11.719 3.907 19.289 5.129 11.719 9.035 6.5937 18.074-13.184 29.793-0.9765 7.816 2.4414 7.813-1.4649h3.91l7.57 10.5 21.977-7.8164 9.039-7.8125h4.148l2.446 2.6875-2.446 6.5899-26.128 13.918 7.812 13.188 20.762 18.066 12.699 5.129 16.848-2.687 13.187-6.348" fill="#a6a385"/>
   <path d="m530.34 90.754 15.387-5.1289 28.57 2.4414 3.91 5.1289-1.469 6.5899 1.469 1.4648 3.66-4.1484v-18.07l-3.66-4.8829-11.723-5.1289-25.886-1.4648-14.168 6.5937-12.942 13.918 6.348 14.161 6.594-9.0317 3.91-2.4414" fill="#8e8b78"/>
   <path d="m237.28 79.031v-6.3477l-3.91-1.2188-1.465-1.4687v-2.4414l21.004 1.4648h4.883l6.594-13.184v-4.8828l-11.477-6.5937-23.687 1.2226-13.922-9.0351h-25.887l-3.906 3.9062v5.1289l-32.238-2.6875-15.629 3.9063-6.352 6.5937 2.445 7.5703 27.106 5.125h25.887l3.906 2.9297-3.906 6.1055v5.3711l37.609 5.1289 1.223 1.4648 6.347-2.9296 5.375-5.1289" fill="#231f20"/>
   <path d="m231.91 75.125h-1.218l-2.446-2.4414 0.981-9.0352h27.351l2.442-7.8125v-2.4414l-7.571-5.3711-13.187 1.4649h-11.481l-11.476-7.5703-9.035-2.9297-11.723 1.4648v11.477h-12.945l-19.293-5.1289-16.852 1.2226-5.125 5.3711v5.1289l18.07 3.9063 37.364 1.2187 1.465 1.4649-4.149 12.941 17.094 3.6641 15.387-1.2227 6.347-5.3711" fill="#fbc707"/>
   <path d="m110.53 32.883-2.441-9.0312-14.41-10.5-21.977-6.5938h-21.738l-6.5937 8.0586-27.106-4.1523-9.0351 1.2226-5.1289 7.8125 1.2188 5.1289 33.457 12.941 40.297 6.5899 4.8828 1.2226 20.762-5.1289 7.812-7.5703" fill="#231f20"/>
   <path d="m81.957 38.988 16.852-1.2188 5.3754-4.8867-1.465-6.5898-19.297-11.477-18.07-5.3711h-10.5l-1.2227 9.0313h-16.852l-18.07-3.6602h-5.1289l-2.4414 2.4414v5.125l9.0352 3.9102h5.1289l7.5703 7.5664 23.445 3.9101 15.387 4.1485h7.8125l2.4414-2.9297" fill="#fbc707"/>
   <path d="m411.65 631.1c122.6-16.848 156.3-67.391 201.97-158.46h2.442c0-7.328 9.523-14.407 9.523-21.735-9.523 0-24.176 0-26.375-7.324-4.883 0-19.293 9.77-21.734 12.211h-9.524c0-16.848-86.699 9.52-93.781 9.52-9.766 19.293-43.469 48.101-60.32 64.949h-4.641c4.641 0 4.641 11.722 4.641 14.164 0 0 4.882 7.324 4.882 9.523v4.883c0 2.442-2.441 7.324-2.441 11.965-7.082 0-16.851-4.641-23.687-4.641 0 2.442-2.442 4.641-2.442 7.082-4.887 0-9.527 14.407-9.527 16.848s2.199 7.324 4.64 7.324c-2.441 0-7.082 4.641-7.082 7.082-7.324 2.442-14.406 19.289-21.734 21.731 0 4.883-4.883 9.523-4.883 14.406 19.293 0 38.586-19.289 50.309-19.289v4.883c4.883 0 0 2.441 9.765 4.883" fill="#e9e9e9"/>
   <path d="m411.65 631.1c122.6-16.848 156.3-67.391 201.97-158.46h2.442c0-7.328 9.523-14.407 9.523-21.735-9.523 0-24.176 0-26.375-7.324-4.883 0-19.293 9.77-21.734 12.211h-9.524c0-16.848-86.699 9.52-93.781 9.52-9.766 19.293-43.469 48.101-60.32 64.949h-4.641c4.641 0 4.641 11.722 4.641 14.164 0 0 4.882 7.324 4.882 9.523v4.883c0 2.442-2.441 7.324-2.441 11.965-7.082 0-16.851-4.641-23.687-4.641 0 2.442-2.442 4.641-2.442 7.082-4.887 0-9.527 14.407-9.527 16.848s2.199 7.324 4.64 7.324c-2.441 0-7.082 4.641-7.082 7.082-7.324 2.442-14.406 19.289-21.734 21.731 0 4.883-4.883 9.523-4.883 14.406 19.293 0 38.586-19.289 50.309-19.289v4.883c4.883 0 0 2.441 9.765 4.883" fill="#231f20"/>
   <path d="m588.46 519.76 7.816-23.199 11.477-25.879-19.535 5.125-11.481 1.222-47.863 15.625-34.68 15.383-31.015 20.754-13.188 10.258-22.957 31.008-9.035 28.324-9.035 20.512-2.442 10.253c0.977 0.489 2.684 1.223 5.125 1.954 99.641-13.672 140.43-49.809 176.81-111.34" fill="#d7d8d9"/>
   <path d="m352.063,638.426 18.316-7.813 18.07-10.254h5.129l6.106-9.035v-3.906l-20.028-5.859c-.976.976-1.465,2.195-1.465,2.929-7.324,2.442-14.406,19.289-21.734,21.731 0,4.152-3.418,8.058-4.394,12.207" fill="#c2c7c9"/>
   <path d="m412.629,575.188-7.816,2.441-13.676-7.57c-.489.976-.977,2.199-.977,3.175-4.887,0-9.527,14.407-9.527,16.848 0,1.465.734,3.906 1.957,5.371l15.871,4.152 6.352-2.441 7.816-21.976" fill="#757577"/>
   <path d="m417.27 564.69 4.398-6.594-2.934-1.707v2.441c0 1.465-0.73 3.418-1.464 5.86" fill="#afb4b7"/>
   <path d="m486.38 499 42.496-18.066 20.758-6.348 5.371-24.418c-17.094 0-46.887 7.324-65.203 11.719l-3.422 4.882-33.699 29.79-7.328 3.421c-11.235 11.231-23.2 22.219-31.504 30.274h-4.641c4.641 0 4.641 11.722 4.641 14.164 0 0 1.222 1.465 2.199 3.418l4.394 2.687 5.129 1.465 12.946-17.824 47.863-35.164zm116.49-51.031-1.465 5.863v5.125l18.071-1.219 5.617-4.152c0.246-0.731 0.488-1.711 0.488-2.688-7.082 0-17.094 0-22.711-2.929" fill="#6a6d70"/>
   <path d="m592.37 457.74 0.977-12.211c-6.106 2.93-14.164 8.547-15.875 10.258h-9.524c0-1.953-1.222-3.418-3.176-4.152l-0.976 3.664v15.383l20.758-3.911 7.816-9.031" fill="#757577"/>
   <path d="m409.21 602.05c26.375 2.441 79.371 31.254 105.75 16.848 38.586-19.047 76.93-105.48 76.93-146.26-11.969 0-23.934 2.195-36.145 2.195 0 4.883-11.968 24.172-14.41 24.172-2.441 9.523-16.851 38.336-23.933 40.535v4.883c-2.442 0-16.852 28.812-16.852 33.695-4.883 0-9.523 4.883-14.406 4.883-11.969-4.883-48.11-4.883-62.52-4.883 0 0-11.969 16.848-14.41 23.93" fill="#e9e9e9"/>
   <path d="m409.21 602.05c26.375 2.441 79.371 31.254 105.75 16.848 38.586-19.047 76.93-105.48 76.93-146.26-11.969 0-23.934 2.195-36.145 2.195 0 4.883-11.968 24.172-14.41 24.172-2.441 9.523-16.851 38.336-23.933 40.535v4.883c-2.442 0-16.852 28.812-16.852 33.695-4.883 0-9.523 4.883-14.406 4.883-11.969-4.883-48.11-4.883-62.52-4.883 0 0-11.969 16.848-14.41 23.93" fill="#231f20"/>
   <path d="m591.88 475.08-3.664 0.731-11.481 1.222-25.152 8.059c-3.664 6.836-8.793 13.914-10.258 13.914-2.441 9.523-16.851 38.336-23.933 40.535v4.883c-2.442 0-16.852 28.812-16.852 33.695-4.883 0-9.523 4.883-14.406 4.883-11.969-4.883-46.891-4.883-61.789-4.883l-6.348 20.266-2.199 4.64c27.84 5.614 74.73 29.301 99.152 15.872 37.61-18.801 75.461-102.06 76.93-143.82" fill="#d7d8d9"/>
   <path d="m409.21 602.05c14.652 1.465 37.856 10.988 59.832 16.848 48.602-15.141 78.395-39.313 103.06-73.985 11.964-26.371 19.781-53.961 19.781-72.273-11.969 0-23.934 2.195-36.145 2.195 0 4.883-11.968 24.172-14.41 24.172-2.441 9.523-16.851 38.336-23.933 40.535v4.883c-2.442 0-16.852 28.812-16.852 33.695-4.883 0-9.523 4.883-14.406 4.883-11.969-4.883-48.11-4.883-62.52-4.883 0 0-11.969 16.848-14.41 23.93" fill="#d3d2d2"/>
   <path d="m409.21 602.05c14.652 1.465 37.856 10.988 59.832 16.848 48.602-15.141 78.395-39.313 103.06-73.985 11.964-26.371 19.781-53.961 19.781-72.273-11.969 0-23.934 2.195-36.145 2.195 0 4.883-11.968 24.172-14.41 24.172-2.441 9.523-16.851 38.336-23.933 40.535v4.883c-2.442 0-16.852 28.812-16.852 33.695-4.883 0-9.523 4.883-14.406 4.883-11.969-4.883-48.11-4.883-62.52-4.883 0 0-11.969 16.848-14.41 23.93" fill="#231f20"/>
   <path d="m591.88 475.08-3.664 0.731-11.481 1.222-25.152 8.059c-3.664 6.836-8.793 13.914-10.258 13.914-2.441 9.523-16.851 38.336-23.933 40.535v4.883c-2.442 0-16.852 28.812-16.852 33.695-4.883 0-9.523 4.883-14.406 4.883-11.969-4.883-46.891-4.883-61.789-4.883l-6.348 20.266-2.199 4.64c14.41 2.93 34.191 10.743 53.238 15.872 48.602-15.141 78.395-39.313 103.06-73.985 11.476-25.148 19.046-51.519 19.781-69.832" fill="#c2c2c3"/>
   <path d="m478.81 616.45c19.293-4.64 48.113-35.894 64.961-35.894-7.082 2.441-19.293 33.695-26.375 33.695 0 2.199-2.442 4.641-2.442 7.082-7.328 0-36.144-4.883-36.144-4.883" fill="#e9e9e9"/>
   <path d="m478.81 616.45c19.293-4.64 48.113-35.894 64.961-35.894-7.082 2.441-19.293 33.695-26.375 33.695 0 2.199-2.442 4.641-2.442 7.082-7.328 0-36.144-4.883-36.144-4.883" fill="#231f20"/>
   <path d="m478.81 616.45c19.293-4.64 48.113-35.894 64.961-35.894-7.082 2.441-19.293 33.695-26.375 33.695 0 2.199-2.442 4.641-2.442 7.082-7.328 0-36.144-4.883-36.144-4.883" fill="#d7d8d9"/>
   <path d="m492.97 610.1c15.632-9.766 33.703-25.879 46.89-29.055-13.433 11.476-28.574 21.242-46.89 29.055" fill="#d3d2d2"/>
   <path d="m492.97 610.1c15.632-9.766 33.703-25.879 46.89-29.055-13.433 11.476-28.574 21.242-46.89 29.055" fill="#231f20"/>
   <path d="m492.97 610.1c15.632-9.766 33.703-25.879 46.89-29.055-13.433 11.476-28.574 21.242-46.89 29.055" fill="#c2c2c3"/>
   <path d="m478.809,616.453c19.293-4.64 48.113-35.894 64.961-35.894-7.082,2.441-19.293,33.695-26.375,33.695 0,1.465-.977,2.93-1.707,4.394-.247,0-.489.247-.735.247-1.465.976-3.176,1.707-4.883,2.195-10.746-1.219-31.261-4.637-31.261-4.637" fill="#d3d2d2"/>
   <path d="m478.809,616.453c19.293-4.64 48.113-35.894 64.961-35.894-7.082,2.441-19.293,33.695-26.375,33.695 0,1.465-.977,2.93-1.707,4.394-.247,0-.489.247-.735.247-1.465.976-3.176,1.707-4.883,2.195-10.746-1.219-31.261-4.637-31.261-4.637" fill="#231f20"/>
   <path d="m478.809,616.453c19.293-4.64 48.113-35.894 64.961-35.894-7.082,2.441-19.293,33.695-26.375,33.695 0,1.465-.977,2.93-1.707,4.394-.247,0-.489.247-.735.247-1.465.976-3.176,1.707-4.883,2.195-10.746-1.219-31.261-4.637-31.261-4.637" fill="#c2c2c3"/>
   <path d="m492.97 610.1c15.632-9.766 33.703-25.879 46.89-29.055-13.433 11.476-28.574 21-46.89 29.055" fill="#bfbebe"/>
   <path d="m492.97 610.1c15.632-9.766 33.703-25.879 46.89-29.055-13.433 11.476-28.574 21-46.89 29.055" fill="#231f20"/>
   <path d="m492.97 610.1c15.632-9.766 33.703-25.879 46.89-29.055-13.433 11.476-28.574 21-46.89 29.055" fill="#aeaeaf"/>
   <path d="m430.7 191.35c-43.715-28.082-59.344-42.977-111.6-20.512-74.242 31.742-67.895 63.242-27.844 113.54l34.191-27.59c-6.105-7.812-10.011-20.512-16.363-28.57 3.664-5.125 59.344-43.215 64.473-44.192 19.051-3.664 38.097 3.418 57.148 7.325" fill="#fff"/>
   <path d="m430.7 191.35c-43.715-28.082-59.344-42.977-111.6-20.512-74.242 31.742-67.895 63.242-27.844 113.54l34.191-27.59c-6.105-7.812-10.011-20.512-16.363-28.57 3.664-5.125 59.344-43.215 64.473-44.192 19.051-3.664 38.097 3.418 57.148 7.325" fill="#393536"/>
   <path d="m348.4 199.41-5.128-5.375-11.965-28.078c-3.91 1.465-7.817 2.93-12.211 4.883-74.242 31.742-67.895 63.242-27.844 113.54l34.191-27.59c-6.105-7.812-10.011-20.512-16.363-28.57 2.199-2.93 21.981-17.09 39.32-28.809" fill="#848b8f"/>
   <path d="m339.12 163.52 2.688 16.601 9.769 17.094c10.742-7.082 20.024-12.941 21.977-13.184 19.051-3.664 38.097 3.418 57.148 7.325-37.609-24.172-54.461-38.579-91.582-27.836" fill="#b4c0c6"/>
   <path d="m623.14 455.79c3.418-11.234 7.082-22.465 8.793-33.941 3.906-26.125-59.832-47.368-81.325-23.684 3.664-23.93-28.816-17.582-41.273-10.988 0.246-21.977 0.488-34.918-12.453-54.696l17.828-8.789c-11.969-23.929-27.109-92.539-40.297-104.02-21.004-18.071-49.332 36.867-54.215 51.519-9.039 28.325 32.723 59.821 49.328 76.18 14.168 13.676-5.617 118.91 38.098 80.332-3.418 5.371-41.27 57.871-14.406 54.938 24.176-2.442 56.902-67.391 76.437-86.68 18.317 1.953 33.949 5.371 51.774 11.234l1.711 48.59zm-150.93-147.97c-15.629-12.695-23.934-26.371-12.942-44.925 4.395 15.382 6.594 29.789 12.942 44.925" fill="#e9e9e9"/>
   <path d="m623.14 455.79c3.418-11.234 7.082-22.465 8.793-33.941 3.906-26.125-59.832-47.368-81.325-23.684 3.664-23.93-28.816-17.582-41.273-10.988 0.246-21.977 0.488-34.918-12.453-54.696l17.828-8.789c-11.969-23.929-27.109-92.539-40.297-104.02-21.004-18.071-49.332 36.867-54.215 51.519-9.039 28.325 32.723 59.821 49.328 76.18 14.168 13.676-5.617 118.91 38.098 80.332-3.418 5.371-41.27 57.871-14.406 54.938 24.176-2.442 56.902-67.391 76.437-86.68 18.317 1.953 33.949 5.371 51.774 11.234l1.711 48.59zm-150.93-147.97c-15.629-12.695-23.934-26.371-12.942-44.925 4.395 15.382 6.594 29.789 12.942 44.925" fill="#231f20"/>
   <path d="m623.14 455.06h0.246c3.418-10.989 6.836-21.977 8.547-33.207 3.906-26.125-59.832-47.368-81.325-23.684 1.707-12.453-5.863-16.605-15.386-17.094l-3.664 2.93-2.684 2.688v7.812l-19.293 39.801-23.203 32.472-1.219 1.223c-2.933 9.035-1.953 15.871 8.059 14.649 24.176-2.442 56.902-67.391 76.437-86.68 18.317 1.953 33.949 5.371 51.774 11.234l1.711 47.856" fill="#6a6d70"/>
   <path d="m492.484,436.008 .246-.242-.246.242" fill="#5c5f63"/>
   <path d="m485.16,433.324 7.57-6.594 6.594-1.464 12.942-23.196 2.445-17.093c-1.957.734-3.91,1.464-5.375,2.199 .246-21.977.488-34.918-12.453-54.696l13.187-6.589-3.175-11.723-5.129-14.16v28.566l-9.036,1.223-10.503,28.566-7.082,9.766c1.957,22.711.734,55.672 10.015,65.195" fill="#5c5f63"/>
   <path d="m473.19 354.7v-0.242l11.969-28.566 6.106-6.352v-24.414l1.464-4.152v-3.907l-7.57 9.036-1.465 5.371-33.215 28.078c7.083 6.836 14.165 12.941 19.047 17.824 1.469 1.465 2.688 3.906 3.664 7.324" fill="#8c959a"/>
   <path d="m440.71 320.03 17.34-8.3 9.035-8.301c-12.211-11.477-17.34-24.172-7.813-40.531 3.661 13.183 5.86 25.39 10.254 38.089l9.039-8.546 7.813-16.848 4.887-5.129-4.641-28.078c-2.687-6.836-5.375-12.942-8.059-17.094l-16.851 10.012-26.133 6.105c-7.57 11.477-13.43 23.93-15.383 29.789-5.129 16.36 6.594 33.696 20.512 48.832" fill="#5c5f63"/>
   <path d="m441.44 232.86h0.977l30.769-14.16c-10.011-7.328-21.734 1.465-31.746 14.16" fill="#8c959a"/>
   <path d="m623.14 455.79c3.418-11.234 7.082-22.465 8.793-33.941 3.906-26.125-59.832-47.368-81.325-23.684 3.664-23.93-28.816-17.582-41.273-10.988 0.246-21.977 0.488-34.918-12.453-54.696l17.828-8.789c-11.969-23.929-27.109-92.539-40.297-104.02-21.004-18.071-49.332 36.867-54.215 51.519-9.039 28.325 32.723 59.821 49.328 76.18 14.168 13.676-5.617 118.91 38.098 80.332-3.418 5.371-41.27 57.871-14.406 54.938 24.176-2.442 56.902-67.391 76.437-86.68 18.317 1.953 33.949 5.371 51.774 11.234l1.711 48.59zm-150.93-147.97c-15.629-12.695-23.934-26.371-12.942-44.925 4.395 15.382 6.594 29.789 12.942 44.925z" fill="none" stroke="#231f20" stroke-miterlimit="3.8636" stroke-width="4.1667"/>
   <path d="m623.141,455.789c.488-1.711.976-3.176 1.464-4.887h-1.707l.243,4.887zm-136.028,6.836c-4.886,11.719-5.863,21.488 6.106,20.02 10.258-.977 22.222-13.672 34.191-29.055-14.41,2.687-29.797,6.348-40.297,9.035" fill="#d3d2d2"/>
   <path d="m623.141,455.789c.488-1.711.976-3.176 1.464-4.887h-1.707l.243,4.887zm-136.028,6.836c-4.886,11.719-5.863,21.488 6.106,20.02 10.258-.977 22.222-13.672 34.191-29.055-14.41,2.687-29.797,6.348-40.297,9.035" fill="#231f20"/>
   <path d="m623.141,455.055h.246c.488-1.465.73-2.684 1.218-4.153h-1.707l.243,4.153zm-133.34,6.836-3.422,4.882-1.219,1.223c-2.933,9.035-1.953,15.871 8.059,14.649 10.258-.977 22.222-13.672 34.191-29.055-13.187,2.441-27.355,5.859-37.609,8.301" fill="#56575a"/>
   <path d="m623.14 455.79c3.418-11.234 7.082-22.465 8.793-33.941 3.906-26.125-59.832-47.368-81.325-23.684 3.664-23.93-28.816-17.582-41.273-10.988 0.246-21.977 0.488-34.918-12.453-54.696l17.828-8.789c-11.969-23.929-27.109-92.539-40.297-104.02-21.004-18.071-49.332 36.867-54.215 51.519-9.039 28.325 32.723 59.821 49.328 76.18 14.168 13.676-5.617 118.91 38.098 80.332-3.418 5.371-41.27 57.871-14.406 54.938 24.176-2.442 56.902-67.391 76.437-86.68 18.317 1.953 33.949 5.371 51.774 11.234l1.711 48.59zm-150.93-147.97c-15.629-12.695-23.934-26.371-12.942-44.925 4.395 15.382 6.594 29.789 12.942 44.925z" fill="none" stroke="#231f20" stroke-miterlimit="3.8636" stroke-width="4.1667"/>
   <path d="m558.18 614.25c-7.817 62.262-27.352 159.93-51.532 218.78-41.757 70.809-66.179-41.996-52.015-84.238 4.394-13.188 14.164-23.93 22.469-34.918l-15.633-11.719c-10.254 13.43-20.024 25.395-25.641 41.754-12.457 36.137-5.863 129.65 45.18 132.34 57.879 3.418 75.219-213.41 77.172-262" fill="#fff"/>
   <path d="m558.18 614.25c-7.817 62.262-27.352 159.93-51.532 218.78-41.757 70.809-66.179-41.996-52.015-84.238 4.394-13.188 14.164-23.93 22.469-34.918l-15.633-11.719c-10.254 13.43-20.024 25.395-25.641 41.754-12.457 36.137-5.863 129.65 45.18 132.34 57.879 3.418 75.219-213.41 77.172-262" fill="#393536"/>
   <path d="m487.6 875.76 27.351-38.336 18.07-42.731 3.422-10.988c14.895-63.973 20.758-142.59 21.735-169.45-7.817 62.262-27.352 159.93-51.532 218.78-41.757 70.809-66.179-41.996-52.015-84.238 4.394-13.188 14.164-23.93 22.469-34.918l-15.633-11.719c-10.254 13.43-20.024 25.395-25.641 41.754-12.457 36.137-5.863 129.65 45.18 132.34 2.199 0.242 4.394 0 6.594-0.488" fill="#fff"/>
   <path d="m536.69 693.61c-8.547 31.5-14.653 47.371-36.145 71.297 2.445-34.672 10.746-67.879 15.633-102.79 5.371-52.254-41.52 18.067-66.43-6.84l-13.918 13.918c16.117 16.118 42.492 12.7 59.59 0.977-0.98 8.305-28.574 160.18 9.523 105.97 21.489-30.278 26.618-45.172 31.747-82.532" fill="#fff"/>
   <path d="m536.69 693.61c-8.547 31.5-14.653 47.371-36.145 71.297 2.445-34.672 10.746-67.879 15.633-102.79 5.371-52.254-41.52 18.067-66.43-6.84l-13.918 13.918c16.117 16.118 42.492 12.7 59.59 0.977-0.98 8.305-28.574 160.18 9.523 105.97 21.489-30.278 26.618-45.172 31.747-82.532" fill="#393536"/>
   <path d="m536.69 693.61c-8.547 31.5-14.653 47.371-36.145 71.297 2.445-34.672 10.746-67.879 15.633-102.79 5.371-52.254-41.52 18.067-66.43-6.84l-13.918 13.918c16.117 16.118 42.492 12.7 59.59 0.977-0.98 8.305-28.574 160.18 9.523 105.97 21.489-30.278 26.618-45.172 31.747-82.532" fill="#fff"/>
   <path d="m176.23 530.26c-41.274 3.422-71.067-14.649-69.848 39.558 0.246 14.649 46.648 8.789 58.125 14.649l8.793-17.578c-12.457-6.106-31.504-6.594-47.379-7.571l0.242-13.675c16.852-4.637 33.215-9.278 50.067-15.383" fill="#fff"/>
   <path d="m176.23 530.26c-41.274 3.422-71.067-14.649-69.848 39.558 0.246 14.649 46.648 8.789 58.125 14.649l8.793-17.578c-12.457-6.106-31.504-6.594-47.379-7.571l0.242-13.675c16.852-4.637 33.215-9.278 50.067-15.383" fill="#393536"/>
   <path d="m176.23 530.26c-41.274 3.422-71.067-14.649-69.848 39.558 0.246 14.649 46.648 8.789 58.125 14.649l8.793-17.578c-12.457-6.106-31.504-6.594-47.379-7.571l0.242-13.675c16.852-4.637 33.215-9.278 50.067-15.383" fill="#ecf3f5"/>
   <path d="m354.02 602.05c-29.793 21.484-129.92 77.402-168.51 52.984 0.488-0.734 0.976-1.465 1.465-1.953l-11.969-15.383c-54.461 57.868 73.023 35.891 97.199 28.325 34.922-10.989 57.391-38.825 81.813-63.973" fill="#fff"/>
   <path d="m354.02 602.05c-29.793 21.484-129.92 77.402-168.51 52.984 0.488-0.734 0.976-1.465 1.465-1.953l-11.969-15.383c-54.461 57.868 73.023 35.891 97.199 28.325 34.922-10.989 57.391-38.825 81.813-63.973" fill="#393536"/>
   <path d="m255.109,670.168 2.684-.73h.488c5.864-1.223 10.746-2.442 13.922-3.418 34.922-10.989 57.391-38.825 81.813-63.973-29.793,21.484-129.922,77.402-168.508,52.984 .488-.734.976-1.465 1.465-1.953l-11.969-15.383c-28.816,30.52-6.836,38.821 23.934,38.821l5.863-.731 37.851-3.418c4.395-.734 8.547-1.465 12.457-2.199" fill="#ecf3f5"/>
   <path d="m218.719,405.246c13.676,11.231 27.597,21.973 42.984,29.055l9.277-6.106h2.442l2.445-5.371-3.91-32.23-16.605-38.824-11.723-18.067-10.258-10.5v-.976l2.445-2.688 12.942,2.688 14.164,9.035-3.906-12.942v-5.129h7.812l25.891,27.102 1.219-6.59v-2.441l.488-.246c-29.551-22.953-59.586-55.184-65.449-72.52-3.176-10.008-2.2-24.414-.243-39.797l-1.957-6.351-2.441-25.879-14.164,15.625-15.629,25.636-10.504,31.012-3.66,36.383 2.684,33.449 3.664,7.813 6.351,25.64 13.188,21.973 2.441,10.5 10.012,10.746zm125.773-45.66v-2.441c-1.222,0-2.445,0-3.664-.247l3.664,2.688" fill="#fbc707"/>
   <path d="m647.563,582.27c2.441-5.618 4.882-11.235 7.328-16.848 1.953-9.524 3.906-18.805 5.613-28.082 0-9.277-.242-18.801-.488-28.324-2.684-7.567-5.371-15.383-8.059-22.95-2.195-3.421-4.148-7.082-6.348-10.5-3.906-1.222-7.816-2.199-11.968-3.175-5.125-.731-7.571,3.175-9.036,9.035 .489,4.152 1.223,8.058 1.711,11.965v17.578c-.734,4.883-3.664,8.547-4.394,13.429-.981,2.442-1.223,5.618-2.199,8.059-1.953.734-4.641.488-6.352,1.953-12.699,11.965-12.211-.976-9.523,15.141 1.953,10.742.488,22.461.734,33.695 .731,2.195 1.465,4.149 2.195,6.348v5.125c1.711,3.91 3.422,7.816 5.129,11.476 2.442,1.223 5.129,2.2 7.571,3.176 3.175-1.223 6.351-2.687 9.527-4.152 6.105-7.567 12.211-15.383 18.559-22.949" fill="#f89a83"/>
   <path d="m646.098,578.605 6.593-15.382c1.954-8.547 3.664-17.094 5.372-25.637-.243-8.547-.489-17.094-.489-25.883-2.441-6.836-4.883-13.918-7.324-20.754-1.953-3.176-3.91-6.594-5.863-9.769-3.664-.977-7.082-1.953-10.746-2.93-4.883-.488-7.571,2.441-9.036,7.816 .489,3.907.977,7.567 1.711,11.231-.246,5.371-.246,10.742-.246,15.871-.73,4.641-3.172,7.812-4.148,12.207-.981,2.199-1.223,4.883-2.199,7.328-1.711.731-4.153.977-5.375,2.93-10.989,10.496-10.5-.246-8.059,13.918 1.711,9.519.488,20.019.734,30.031 .731,1.953 1.219,3.664 1.954,5.617v4.883c1.711,3.418 3.175,6.836 4.64,10.5 2.442.977 4.641,1.953 6.836,2.93 2.934-1.465 5.863-2.688 8.793-3.907 5.617-7.082 11.234-14.164 16.852-21" fill="#f89f88"/>
   <path d="m644.633,574.941c2.195-4.636 4.152-9.277 6.105-13.918 1.707-7.812 3.172-15.382 4.883-23.195-.242-7.57-.488-15.383-.73-23.195-2.2-6.348-4.399-12.695-6.594-19.047-1.711-2.93-3.422-5.613-5.129-8.543-3.176-.977-6.594-1.953-9.77-2.688-4.152-.734-7.328,1.465-8.793,6.348 .735,3.664.977,7.082 1.465,10.5 0,4.883 0,9.524-.242,14.16-.734,4.153-2.93,7.082-3.906,10.989-.981,1.953-1.469,4.394-2.199,6.593-1.711.977-3.664,1.465-4.641,3.664-9.035,9.032-8.547.731-6.352,12.942 1.469,8.301.493,17.578.735,26.125 .488,1.707 1.223,3.418 1.711,5.129v4.394l4.394,9.52c1.953.734 4.153,1.711 6.106,2.687 2.687-1.222 5.371-2.441 7.816-3.418 5.129-6.347 10.254-12.695 15.141-19.047" fill="#f8a690"/>
   <path d="m643.41,571.035c1.711-3.906 3.418-8.058 5.375-12.207 1.465-6.836 2.684-13.918 4.149-20.754-.243-6.836-.243-13.676-.489-20.754l-5.859-16.847c-1.465-2.688-2.93-5.129-4.641-7.817-2.929-.73-5.859-1.465-8.793-2.441-3.66-.488-7.324.734-8.3,5.129 .488,3.418.73,6.836.976,10.011 0,4.149 0,8.055-.246,11.965-.73,3.907-2.684,6.59-3.66,9.766-.981,1.953-1.469,4.152-2.445,6.105-1.219.977-2.93,1.707-3.661,4.149-7.086,7.812-6.593,1.465-4.886,11.965 1.465,7.324.734,15.383.976,22.707 .489,1.465.977,2.929 1.711,4.64v3.907c1.219,2.687 2.442,5.617 3.664,8.3 1.953.735 3.66,1.711 5.617,2.442 2.196-.977 4.637-1.953 6.836-3.172 4.641-5.617 9.036-11.234 13.676-17.094" fill="#f9ad98"/>
   <path d="m641.945,567.375c1.711-3.418 3.176-7.082 4.641-10.746 1.465-6.102 2.687-12.207 3.906-18.313-.242-5.859-.242-11.964-.488-18.066-1.707-5.129-3.418-10.012-5.129-14.895-1.465-2.441-2.684-4.64-4.152-6.839-2.442-.731-5.125-1.465-7.571-2.196-3.418-.488-7.324-.246-8.3,3.418 .488,3.418.73,6.594.976,9.524 0,3.66-.246,7.078-.246,10.254-.73,3.664-2.684,5.859-3.418,8.547-1.223,1.707-1.953,3.417-2.687,5.371-1.219,1.222-2.442,2.199-2.93,4.882-5.371,6.594-4.641,2.442-3.176,10.989 1.223,6.347.734,12.941.977,19.047 .488,1.218.976,2.441 1.468,3.906v3.418c.977,2.441 2.196,4.883 3.172,7.324 1.711.734 3.422,1.465 4.887,2.199 2.195-.976 4.152-1.711 6.348-2.687 3.91-5.129 7.816-10.012 11.722-15.137" fill="#fab5a0"/>
   <path d="m640.48,563.711c1.465-2.93 2.93-6.106 4.153-9.277 1.219-5.375 2.195-10.5 3.176-15.871 0-5.129-.246-10.258-.246-15.629-1.465-4.395-2.93-8.547-4.395-12.942-1.223-1.953-2.445-3.906-3.664-5.859-2.199-.488-4.395-1.219-6.594-1.707-2.93-.488-7.082-1.223-8.058,1.953 .488,3.418.73,6.101.73,8.789 0,3.172 0,5.859-.242,8.547-.735,3.172-2.199,5.125-3.176,7.324-1.223,1.465-1.953,2.93-2.687,4.641-.977,1.218-1.954,2.683-1.954,5.859-3.664,4.883-2.929,3.172-1.707,9.766 .977,5.129.977,10.5.977,15.14 .488,1.219.73,2.442 1.219,3.418v2.93c.976,2.195 1.953,4.395 2.929,6.59 1.223.492 2.688,1.222 4.153,1.711 1.711-.731 3.422-1.465 5.375-2.199 3.418-4.395 6.594-8.79 10.011-13.184" fill="#fabca9"/>
   <path d="m639.258,560.047c.976-2.442 2.199-5.125 3.422-7.813 .73-4.394 1.707-8.789 2.683-13.429-.242-4.149-.242-8.547-.242-13.184-1.223-3.664-2.687-7.082-3.906-10.746l-2.934-5.125c-1.707-.488-3.66-.977-5.617-1.465-2.195-.246-6.836-1.953-7.57.731 .246,3.175.488,5.859.488,8.058 0,2.688-.242,4.883-.488,6.836-.731,2.688-1.953,4.395-2.93,6.106-.976,1.222-1.953,2.199-2.687,3.906-.977,1.465-1.465,3.176-1.219,6.594-1.711,3.418-.977,3.906 0,8.789 .73,3.906.976,7.812.976,11.476 .243.977.731,1.953.977,2.93v2.441c.73,1.711 1.711,3.664 2.441,5.371 1.223.489 2.442.977 3.418,1.465 1.465-.488 3.176-1.218 4.641-1.953 2.687-3.66 5.617-7.324 8.547-10.988" fill="#fbc4b2"/>
   <path d="m637.793,556.387c.977-1.953 1.953-4.153 2.93-6.348 .492-3.664 1.222-7.328 1.957-10.746 0-3.418 0-7.078-.246-10.742-.977-2.93-1.954-5.86-2.93-9.035-.734-1.219-1.465-2.684-2.441-3.907-1.465-.488-2.93-.976-4.399-1.222-1.953-.242-7.082-2.93-7.57-.731 2.441,23.684-8.301,12.453-6.106,27.836 .735,4.149 2.688,10.988 2.688,15.383 .246.73.488,1.707.734,2.441v1.954c.731,1.464 1.465,2.929 1.953,4.394 .977.488 1.953.977 2.93,1.223l3.664-1.465c2.195-2.934 4.641-5.863 6.836-9.035" fill="#fbcbbb"/>
   <path d="m712.04 484.6c92.559-22.223 122.84 49.566 70.824 120.38l17.34 8.789c56.899-73.739 21.489-176.54-88.164-129.16zm86.695 20.265 26.622 30.031-26.622-30.031z" fill="#e9e9e9"/>
   <path d="m712.04 484.6c92.559-22.223 122.84 49.566 70.824 120.38l17.34 8.789c56.899-73.739 21.489-176.54-88.164-129.16zm86.695 20.265 26.622 30.031-26.622-30.031z" fill="#231f20"/>
   <path d="m747.2 473.86 15.875 6.106 2.195 2.93c48.114 11.964 57.391 65.437 19.293 119.64l-1.218 2.684 16.851 8.547c50.305-65.196 28.571-152.85-52.996-139.91zm51.527 31.012 26.622 30.031-26.622-30.031" fill="#8c959a"/>
   <path d="m730.352,481.426-2.442-.488-2.441.976c1.465-.246 3.172-.488 4.883-.488" fill="#e28d77"/>
   <path d="m712.04 484.6c92.559-22.223 122.84 49.566 70.824 120.38l17.34 8.789c56.899-73.739 21.489-176.54-88.164-129.16zm86.695 20.265 26.622 30.031" fill="none" stroke="#231f20" stroke-miterlimit="3.8636" stroke-width="4.1667"/>
   <path d="m707.4 474.83c30.285-3.66 61.054-9.035 91.582-4.883l4.394-19.047c-47.375-6.589-57.391 1.711-95.976 23.93" fill="#e9e9e9"/>
   <path d="m707.4 474.83c30.285-3.66 61.054-9.035 91.582-4.883l4.394-19.047c-47.375-6.589-57.391 1.711-95.976 23.93" fill="#231f20"/>
   <path d="m740.852,456.277-5.372,4.149-1.222-.731c-7.57,3.907-16.117,9.032-26.863,15.137 2.441-.242 5.128-.488 7.57-.977l6.594-3.171 12.457.73c21.492-2.687 43.226-4.394 64.961-1.465l4.394-19.047c-30.281-4.148-45.422-2.195-62.519,5.375" fill="#8c959a"/>
   <path d="m659.28 669.44c-7.082-13.188-10.5-18.801-21.98-25.395 15.386-24.66 18.562-46.879 23.691-75.691 3.906-14.653 14.895-26.86 18.313-41.754 3.421-16.118-4.637-32.231 4.64-46.149l-15.871-10.988c-12.211 21.73-5.863 21-6.594 43.219-0.734 23.195-19.539 37.847-21.492 61.773-2.441 28.324-0.488 42.731-10.258 69.836-2.199 5.859 10.989 5.613 14.164 7.813 6.352 4.636 10.5 11.476 15.387 17.336" fill="#e9e9e9"/>
   <path d="m659.28 669.44c-7.082-13.188-10.5-18.801-21.98-25.395 15.386-24.66 18.562-46.879 23.691-75.691 3.906-14.653 14.895-26.86 18.313-41.754 3.421-16.118-4.637-32.231 4.64-46.149l-15.871-10.988c-12.211 21.73-5.863 21-6.594 43.219-0.734 23.195-19.539 37.847-21.492 61.773-2.441 28.324-0.488 42.731-10.258 69.836-2.199 5.859 10.989 5.613 14.164 7.813 6.352 4.636 10.5 11.476 15.387 17.336" fill="#231f20"/>
   <path d="m664.902,475.078 11.235,1.953 1.953-.488-10.012-7.082c-1.223,1.953-2.199,3.906-3.176,5.617zm18.805,5.125 .242.488v-.242l-.242-.246zm-3.176,7.817-4.394-3.176 2.683,11.719v5.128l.489-.488c-.243-4.64 0-9.035 1.222-13.183zm-34.679,140.152-12.942,6.105c-.976,3.172-1.953,6.348-3.176,10.012-1.464,3.66 3.176,4.883 7.571,5.859l2.687-.246h2.688v-2.441c-1.711-1.219-3.422-2.195-5.375-3.418 3.418-5.371 6.105-10.5 8.547-15.871zm12.211,39.312-.977-.734c.734.977 1.465,1.711 2.199,2.688-.488-.735-.734-1.223-1.222-1.954" fill="#8c959a"/>
   <path d="m672.47 543.2-1.223-5.613-4.641 16.848c1.957-3.907 3.911-7.571 5.864-11.235" fill="#e28d77"/>
   <path d="m651.715,612.059 2.441-51.036 14.41-40.043 2.684-27.101-4.148-9.035-5.129-2.688c-3.422,10.012 0,13.918-.489,30.524-.734,23.195-19.539,37.847-21.492,61.773-1.711,19.535-1.465,32.477-4.152,47.371l8.058-2.929 7.082-4.641c.247-.731.489-1.465.735-2.195" fill="#e28d77"/>
   <path d="m680.043,519.273-3.906,6.836 .976,7.325c.731-2.196 1.465-4.395 2.196-6.836 .492-2.442.734-4.883.734-7.325" fill="#b54d6e"/>
   <path d="m647.563,582.27c2.441-5.618 4.882-11.235 7.328-16.848 1.953-9.524 3.906-18.805 5.613-28.082 0-5.125-.242-10.254-.242-15.383-4.395,18.07-18.559,31.742-20.27,52.496-.734,7.082-.976,13.188-1.222,18.801l8.793-10.984" fill="#e28d77"/>
   <path d="m646.098,578.605 6.593-15.382c1.954-8.547 3.664-17.094 5.372-25.637 0-2.688-.243-5.371-.243-8.059-5.617,14.407-16.363,27.102-17.828,44.926-.488,4.641-.734,9.035-.976,12.942 2.441-2.93 4.64-5.86 7.082-8.79" fill="#e2917c"/>
   <path d="m644.633,574.941c2.195-4.636 4.152-9.277 6.105-13.918 1.707-7.812 3.172-15.382 4.883-23.195-.242-.73-.242-1.707-.242-2.683-5.863,12.207-14.164,23.925-15.387,39.308-.246,2.442-.488,4.887-.734,7.082 1.957-2.195 3.664-4.394 5.375-6.594" fill="#e39783"/>
   <path d="m643.41,571.035c1.711-3.906 3.418-8.058 5.375-12.207 1.219-5.859 2.442-11.965 3.66-17.824-5.371,10.254-11.476,20.508-12.453,33.449 0,.488-.246.735-.246,1.223 1.223-1.465 2.445-2.93 3.664-4.641" fill="#e39e8a"/>
   <path d="m641.945,567.375c1.711-3.418 3.176-7.082 4.641-10.746 .734-2.684 1.223-5.371 1.711-7.813-3.176,6.348-6.106,12.942-7.574,20.266 .492-.488.734-.977 1.222-1.707" fill="#e4a592"/>
   <path d="m757.7 304.16c-11.476-2.683-38.098-19.043-43.957-18.801-106.97 7.571-85.965 3.176-85.965 95.715h19.539c0-22.707-3.175-45.66-2.687-68.121 45.422-22.711 70.332-9.523 113.07-8.793" fill="#e9e9e9"/>
   <path d="m757.7 304.16c-11.476-2.683-38.098-19.043-43.957-18.801-106.97 7.571-85.965 3.176-85.965 95.715h19.539c0-22.707-3.175-45.66-2.687-68.121 45.422-22.711 70.332-9.523 113.07-8.793" fill="#231f20"/>
   <path d="m641.457,331.262 3.664-24.664 5.371-3.907h14.164l11.481-5.125-3.176-9.035c-16.606,1.465-27.598,3.172-34.68,6.594l-.73,3.66-9.524,8.301c-3.91,11.965-.492,32.477-.246,68.859l2.199,5.125h8.79l1.222-3.418 1.465-46.39" fill="#757577"/>
   <path d="m700.801,297.566-2.442-3.906v-5.129l.977-1.465h3.906l4.153,5.372 9.527,8.3c9.523.977 19.293,2.442 30.281,3.176l-5.375-6.105c-11.476-5.614-24.176-12.696-28.082-12.454-11.48.977-21.492,1.465-30.285,2.2l.734,4.883 6.106,7.324c4.394-.242 8.793-.242 13.187,0l-2.687-2.196" fill="#d7d6cc"/>
   <path d="m567.95 68.531c15.141 1.9531 30.528 5.1289 45.91 4.8867-3.66 63.973 86.942 22.949 48.114-25.395l-15.145 12.207c2.199 2.9297 3.91 7.082 6.352 9.7656-1.953 8.3047-4.395 10.746-12.211 16.606l-9.281-3.6641c-6.836-36.867-30.528-18.555-63.739-14.406" fill="#e9e9e9"/>
   <path d="m567.95 68.531c15.141 1.9531 30.528 5.1289 45.91 4.8867-3.66 63.973 86.942 22.949 48.114-25.395l-15.145 12.207c2.199 2.9297 3.91 7.082 6.352 9.7656-1.953 8.3047-4.395 10.746-12.211 16.606l-9.281-3.6641c-6.836-36.867-30.528-18.555-63.739-14.406" fill="#231f20"/>
   <path d="m581.87 66.09 3.664 5.129h0.977l21.246-7.5704 3.91-3.1718c-8.059-0.2461-18.316 2.9297-29.797 5.6132zm39.809-2.9296c4.64 3.1757 8.058 9.0351 10.012 19.777l9.281 3.6641c7.816-5.8594 10.258-8.3008 12.211-16.606-2.442-2.6836-4.153-6.8359-6.352-9.7656l15.145-12.207c38.828 48.344-51.774 89.368-48.114 25.395-2.683 0-5.371 0-8.3-0.2461l15.382-8.0586 0.735-1.9531" fill="#908d73"/>
   <path d="m548.66 104.67c36.145 51.762 53.239 104.5 56.414 166.77 3.66 40.535-30.773 42.242-59.59 60.8-59.343 38.09-52.75 136.25-135.78 157.25-20.269 3.661-39.562 9.278-60.32 9.278v19.535c90.605 0 132.12-38.824 169.24-117.94 10.258-20.507 18.317-38.578 37.852-52.007 74.488-44.684 69.847-58.844 51.773-129.41-12.699-40.777-32.722-80.82-59.586-114.27" fill="#e9e9e9"/>
   <path d="m548.66 104.67c36.145 51.762 53.239 104.5 56.414 166.77 3.66 40.535-30.773 42.242-59.59 60.8-59.343 38.09-52.75 136.25-135.78 157.25-20.269 3.661-39.562 9.278-60.32 9.278v19.535c90.605 0 132.12-38.824 169.24-117.94 10.258-20.507 18.317-38.578 37.852-52.007 74.488-44.684 69.847-58.844 51.773-129.41-12.699-40.777-32.722-80.82-59.586-114.27" fill="#231f20"/>
   <path d="m368.18,517.809-18.805-3.176v-.246 3.91c6.348,0 12.699-.246 18.805-.488" fill="#afb4b7"/>
   <path d="m421.66 500.47 34.922-21.977 25.641-27.105 10.503-15.625-32.238 25.882-6.594 3.418c-11.234 10.989-25.398 19.536-44.203 24.418-11.476 1.954-22.468 4.883-33.945 6.836l-9.281 2.684-17.094 2.445v2.684l8.059 3.906 10.011 1.465 37.368-3.906 16.851-5.125" fill="#5c5f63"/>
   <path d="m471.97 443.09 7.812-4.883 12.945-11.477 6.594-1.464 12.942-23.196 3.664-27.101-0.731-11.723c-16.363 24.66-26.867 54.695-43.226 79.844" fill="#5c5f63"/>
   <path d="m603.12 204.05-2.687-7.57c-12.457-32.961-29.797-64.461-51.774-91.805 34.676 49.808 52.016 100.84 55.926 160.42l5.859-3.664h6.352l1.219 2.445v4.149l-12.699 11.722c-1.465 28.567-25.887 34.426-50.063 46.879l-28.82 29.055 1.222 14.164 84.012-65.438c13.43-20.511 7.57-42.488-3.422-85.461-1.465-4.882-3.172-10.011-5.125-14.894" fill="#757577"/>
   <path d="m461.227,483.379c6.593-5.617 12.699-11.965 18.804-19.047-2.929.734-5.129.977-5.863.977-2.684,5.375-7.324,11.476-12.941,18.07" fill="#d3d2d2"/>
   <path d="m461.227,483.379c6.593-5.617 12.699-11.965 18.804-19.047-2.929.734-5.129.977-5.863.977-2.684,5.375-7.324,11.476-12.941,18.07" fill="#231f20"/>
   <path d="m509.336,372.77c-10.258,17.093-18.316,36.382-27.84,54.207 3.418,9.031 9.524,12.695 20.758,4.882 5.617-9.765 11.234-20.265 16.363-31.5 3.418-6.589 6.348-12.941 9.77-18.8-7.328.734-14.41,3.175-19.051,5.617v-14.406" fill="#d3d2d2"/>
   <path d="m509.336,372.77c-10.258,17.093-18.316,36.382-27.84,54.207 3.418,9.031 9.524,12.695 20.758,4.882 5.617-9.765 11.234-20.265 16.363-31.5 3.418-6.589 6.348-12.941 9.77-18.8-7.328.734-14.41,3.175-19.051,5.617v-14.406" fill="#231f20"/>
   <path d="m492.484,436.008 .246-.242-.246.242" fill="#48494c"/>
   <path d="m485.16,433.324 7.57-6.594 6.594-1.464 12.942-23.196 2.445-17.093c-1.957.734-3.91,1.464-5.375,2.199v-14.406c-10.258,17.093-18.316,36.382-27.84,54.207 .977,2.683 2.199,4.882 3.664,6.347" fill="#48494c"/>
   <path d="m281.48 568.59c0.243-13.672-1.957-27.59 1.954-40.289 5.371-19.532 47.867-23.196 25.64-50.785 10.504-0.735 18.317-2.93 25.887-7.817-15.871 75.449 57.637 68.371 57.637 43.707h-19.539v2.442c-4.149-2.196-7.813-3.172-11.723-3.172-33.457-24.907 32.973-113.05 3.664-142.11-20.758-20.265-15.629 46.883-15.629 49.567-11.477 54.453-73.02 33.453-41.762 71.543-28.816 35.16-29.304 32.23-26.129 76.914" fill="#e9e9e9"/>
   <path d="m281.48 568.59c0.243-13.672-1.957-27.59 1.954-40.289 5.371-19.532 47.867-23.196 25.64-50.785 10.504-0.735 18.317-2.93 25.887-7.817-15.871 75.449 57.637 68.371 57.637 43.707h-19.539v2.442c-4.149-2.196-7.813-3.172-11.723-3.172-33.457-24.907 32.973-113.05 3.664-142.11-20.758-20.265-15.629 46.883-15.629 49.567-11.477 54.453-73.02 33.453-41.762 71.543-28.816 35.16-29.304 32.23-26.129 76.914" fill="#231f20"/>
   <path d="m308.84 504.13-0.734-1.219-6.836-3.418c-22.715 27.102-22.715 28.078-19.782 69.098 0.243-13.672-1.957-27.59 1.954-40.289 2.929-10.496 16.851-16.36 25.398-24.172" fill="#d7d6cc"/>
   <path d="m383.57 526.6-4.152-6.836-30.039-5.129-14.41-8.547c0.734 2.441 1.711 4.883 2.933 7.082h1.465l9.035 10.5 0.243 1.219c11.234 7.57 25.644 6.84 34.925 1.711" fill="#afb4b7"/>
   <path d="m353.28 500.96-4.883 0.73-1.464 1.223 9.523 4.637c-1.465-1.953-2.441-4.149-3.176-6.59" fill="#5c5f63"/>
   <path d="m339.363,480.938 2.442-9.036-2.442-5.129-6.593-3.906v-1.219l1.464-1.222-8.058-5.613c-17.586,11.23-35.656,11.718-22.957,30.765l11.476,5.86v4.636c1.711-4.883.735-10.742-5.617-18.554 10.504-.735 18.317-2.93 25.887-7.817-1.707,8.059-2.442,15.141-2.195,21.488l6.593-10.253" fill="#97afba"/>
   <path d="m360.61 446.51-7.082 2.199-5.129 9.035-2.687 2.684 5.129 7.57-9.035 25.883 10.011-1.465c-0.73-12.941 3.907-29.301 8.793-45.906" fill="#5c5f63"/>
   <path d="m355.97 394.5-5.371-16.848c-3.176 15.141-1.223 40.778-1.223 42.485-2.93 13.676-9.035 22.711-15.875 29.058l4.398 3.418 15.629-27.347 2.442-30.766" fill="#d2aa29"/>
   <path d="m354.26 368.86 9.527 15.137 2.684 27.105-5.129 19.532 4.398-1.465c7.082-23.926 11.477-46.391-0.734-58.602-4.883-4.636-8.301-4.636-10.746-1.707" fill="#8c959a"/>
   <path d="m392.6 514.88v-1.465h-19.539v2.442c-4.149-2.196-7.813-3.172-11.723-3.172-4.637-3.418-7.324-8.301-8.789-13.918h-3.176v19.535c15.629 0 30.039-1.223 43.227-3.422" fill="#d3d2d2"/>
   <path d="m392.6 514.88v-1.465h-19.539v2.442c-4.149-2.196-7.813-3.172-11.723-3.172-4.637-3.418-7.324-8.301-8.789-13.918h-3.176v19.535c15.629 0 30.039-1.223 43.227-3.422" fill="#231f20"/>
   <path d="m368.18,517.809-18.805-3.176v-.246 3.91c6.348,0 12.699,0 18.805-.488" fill="#9a9ea1"/>
   <path d="m353.28 500.96-3.906 0.488v2.684l7.082 3.418c-1.465-1.953-2.441-4.149-3.176-6.59" fill="#48494c"/>
  </g>
 </g>
</svg>
